<ttFont>
          <CharString index="0">
            16 8 6 -106 callsubr
            return
          </CharString>
          <CharString index="1">
            17 hvcurveto
            482 -105 callgsubr
            return
          </CharString>
          <CharString index="2">
            267 callgsubr
            57 210 callsubr
            return
          </CharString>
          <CharString index="3">
            -103 callsubr
            302 -102 callgsubr
            -108 62 -62 108 vhcurveto
            -78 callsubr
            return
          </CharString>
          <CharString index="4">
            -16 -8 113 callgsubr
            -84 callgsubr
            return
          </CharString>
          <CharString index="5">
            -98 callgsubr
            -258 vlineto
            -40 -21 -23 -43 vhcurveto
            -23 hlineto
            -49 -28 24 48 hvcurveto
            30 -87 callgsubr
            return
          </CharString>
          <CharString index="6">
            -89 callsubr
            271 vlineto
            -99 callgsubr
            return
          </CharString>
          <CharString index="7">
            -101 callsubr
            endchar
          </CharString>
          <CharString index="8">
            -17 8 -57 callsubr
            return
          </CharString>
          <CharString index="9">
            -96 callsubr
            -123 194 rlineto
            return
          </CharString>
          <CharString index="10">
            -77 callgsubr
            63 vlineto
            48 14 24 37 32 16 -15 -44 vhcurveto
            -61 vlineto
            -16 -84 callgsubr
            64 69 callgsubr
            51 return
          </CharString>
          <CharString index="11">
            -38 callgsubr
            -66 callgsubr
            -72 vlineto
            29 -38 -73 callsubr
            return
          </CharString>
          <CharString index="12">
            rmoveto
            -98 callsubr
            return
          </CharString>
          <CharString index="13">
            -73 -51 -46 -93 callsubr
            return
          </CharString>
          <CharString index="14">
            -71 178 callgsubr
            hvcurveto
            -87 callsubr
            return
          </CharString>
          <CharString index="15">
            -89 callsubr
            481 -79 callgsubr
            return
          </CharString>
          <CharString index="16">
            hlineto
            -92 callgsubr
            return
          </CharString>
          <CharString index="17">
            -25 callgsubr
            -46 150 callsubr
            63 vlineto
            47 18 21 45 vhcurveto
            156 hlineto
            29 21 16 34 hvcurveto
            97 -104 callgsubr
            50 -74 callgsubr
            return
          </CharString>
          <CharString index="18">
            hlineto
            -88 callgsubr
            return
          </CharString>
          <CharString index="19">
            -62 callgsubr
            77 -63 callsubr
            -124 196 rlineto
            return
          </CharString>
          <CharString index="20">
            -19 8 13 -15 24 hhcurveto
            49 hlineto
            15 7 10 13 5 -1 5 -1 5 hvcurveto
            -3 11 -4 12 16 -3 callgsubr
            return
          </CharString>
          <CharString index="21">
            vlineto
            16 -79 callsubr
            return
          </CharString>
          <CharString index="22">
            rmoveto
            30 callgsubr
            -46 vlineto
            -16 8 -8 17 vhcurveto
            67 121 callgsubr
            52 470 callsubr
            -102 27 callsubr
            -72 vlineto
            31 -38 6 callsubr
            return
          </CharString>
          <CharString index="23">
            4 5 8 return
          </CharString>
          <CharString index="24">
            -98 callgsubr
            -251 vlineto
            -86 callgsubr
            return
          </CharString>
          <CharString index="25">
            -6 7 -18 vhcurveto
            return
          </CharString>
          <CharString index="26">
            -7 -53 callsubr
            -17 return
          </CharString>
          <CharString index="27">
            -109 134 callgsubr
            -97 callsubr
            return
          </CharString>
          <CharString index="28">
            -8 8 -16 vhcurveto
            return
          </CharString>
          <CharString index="29">
            19 hlineto
            43 30 17 22 13 hvcurveto
            -42 callgsubr
            return
          </CharString>
          <CharString index="30">
            hvcurveto
            57 -86 callsubr
            return
          </CharString>
          <CharString index="31">
            -77 vlineto
            -80 callsubr
            return
          </CharString>
          <CharString index="32">
            251 callsubr
            63 189 callgsubr
            -37 hlineto
            -49 -23 17 48 hvcurveto
            70 230 callgsubr
            113 66 callgsubr
            64 -74 callgsubr
            return
          </CharString>
          <CharString index="33">
            -80 callgsubr
            4 return
          </CharString>
          <CharString index="34">
            114 -185 -57 callgsubr
            return
          </CharString>
          <CharString index="35">
            -99 callsubr
            69 hlineto
            16 8 return
          </CharString>
          <CharString index="36">
            -72 callgsubr
            46 -91 callsubr
            return
          </CharString>
          <CharString index="37">
            413 hmoveto
            -52 callgsubr
            209 133 callsubr
            -327 58 callgsubr
            return
          </CharString>
          <CharString index="38">
            -2 callgsubr
            -85 hlineto
            -18 callgsubr
            return
          </CharString>
          <CharString index="39">
            56 hlineto
            25 9 -12 -24 hvcurveto
            -19 vlineto
            -27 -10 -11 -24 vhcurveto
            -36 hlineto
            -27 -18 10 32 hvcurveto
            4 -50 callgsubr
            -188 vlineto
            -99 callsubr
            67 hlineto
            16 8 6 17 hvcurveto
            69 4 vlineto
            -18 9 20 -10 33 hhcurveto
            return
          </CharString>
          <CharString index="40">
            hlineto
            -103 callsubr
            return
          </CharString>
          <CharString index="41">
            rlineto
            -4 -6 -2 -4 -7 vvcurveto
            -11 8 -5 13 vhcurveto
            88 hlineto
            12 7 5 8 5 hvcurveto
            66 98 rlineto
            5 hlineto
            65 -98 rlineto
            -8 5 7 -5 12 hhcurveto
            88 hlineto
            13 8 5 11 7 -2 4 -4 6 hvcurveto
            return
          </CharString>
          <CharString index="42">
            121 callsubr
            181 -104 callgsubr
            return
          </CharString>
          <CharString index="43">
            -65 callgsubr
            -8 hlineto
            -56 336 callsubr
            return
          </CharString>
          <CharString index="44">
            hlineto
            13 8 10 12 5 -2 7 -4 5 hvcurveto
            return
          </CharString>
          <CharString index="45">
            vlineto
            -36 -3 -32 -66 vhcurveto
            -66 hlineto
            -17 callsubr
            105 hlineto
            95 50 64 97 hvcurveto
            return
          </CharString>
          <CharString index="46">
            -71 callsubr
            -194 vlineto
            -98 63 -61 97 vhcurveto
            return
          </CharString>
          <CharString index="47">
            122 callsubr
            -14 hlineto
            265 callsubr
            return
          </CharString>
          <CharString index="48">
            -72 callsubr
            6 17 hvcurveto
            return
          </CharString>
          <CharString index="49">
            7 vlineto
            43 1 10 25 45 hhcurveto
            64 hlineto
            24 9 -8 -24 hvcurveto
            -14 vlineto
            -99 callsubr
            63 hlineto
            16 8 6 17 hvcurveto
            35 vlineto
            65 -44 38 -75 vhcurveto
            -96 hlineto
            -29 -13 10 33 29 13 11 61 callsubr
            return
          </CharString>
          <CharString index="50">
            -6 16 vhcurveto
            return
          </CharString>
          <CharString index="51">
            -114 46 -59 109 vhcurveto
            -60 callgsubr
            return
          </CharString>
          <CharString index="52">
            rmoveto
            -37 -18 -18 -35 vhcurveto
            -4 hlineto
            -38 -16 19 36 hvcurveto
            203 -104 callgsubr
            87 -98 callgsubr
            -282 41 callsubr
            44 5 callgsubr
            return
          </CharString>
          <CharString index="53">
            141 86 callsubr
            -128 -46 callgsubr
            return
          </CharString>
          <CharString index="54">
            -16 -3 callsubr
            return
          </CharString>
          <CharString index="55">
            78 394 643 rmoveto
            -18 callgsubr
            -453 240 callgsubr
            -69 hlineto
            -42 -16 17 42 hvcurveto
            453 -48 callgsubr
            -459 7 callgsubr
            110 hlineto
            342 callsubr
            460 504 callsubr
            -15 vhcurveto
            return
          </CharString>
          <CharString index="56">
            13 14 2 18 33 vvcurveto
            99 -104 callgsubr
            return
          </CharString>
          <CharString index="57">
            -8 16 vhcurveto
            return
          </CharString>
          <CharString index="58">
            -83 callsubr
            -110 -59 -64 -106 -1 hvcurveto
            return
          </CharString>
          <CharString index="59">
            rmoveto
            -103 callsubr
            return
          </CharString>
          <CharString index="60">
            -42 -13 13 45 hvcurveto
            20 vlineto
            25 16 13 20 vhcurveto
            62 336 callgsubr
            16 -77 callsubr
            -62 219 callgsubr
            50 vlineto
            26 13 10 18 vhcurveto
            return
          </CharString>
          <CharString index="61">
            41 239 hmoveto
            -41 callgsubr
            return
          </CharString>
          <CharString index="62">
            8 16 hvcurveto
            return
          </CharString>
          <CharString index="63">
            -44 callgsubr
            -84 hlineto
            234 callgsubr
            return
          </CharString>
          <CharString index="64">
            rlineto
            -3 -4 -2 -4 -4 vvcurveto
            -8 242 callsubr
            return
          </CharString>
          <CharString index="65">
            vlineto
            -56 callgsubr
            return
          </CharString>
          <CharString index="66">
            vlineto
            -85 42 -43 93 vhcurveto
            -68 callsubr
            return
          </CharString>
          <CharString index="67">
            hvcurveto
            57 vlineto
            return
          </CharString>
          <CharString index="68">
            86 hlineto
            20 11 -8 -30 hvcurveto
            -21 vlineto
            -28 -11 -9 -20 vhcurveto
            -54 hlineto
            -42 -21 1 41 41 callgsubr
            -4 vlineto
            return
          </CharString>
          <CharString index="69">
            36 336 186 rmoveto
            -43 -14 -33 -55 vhcurveto
            -37 76 callgsubr
            -102 -389 2 callsubr
            return
          </CharString>
          <CharString index="70">
            14 11 5 27 25 vvcurveto
            98 -53 48 -105 -104 -54 -52 -93 -34 12 -26 18 -14 vhcurveto
            -4 vlineto
            -61 -19 -23 -47 -84 vvcurveto
            -25 535 callsubr
            13 85 callgsubr
            217 -50 callgsubr
            -27 150 callgsubr
            -16 150 callsubr
            24 vlineto
            46 15 16 47 vhcurveto
            return
          </CharString>
          <CharString index="71">
            115 callsubr
            533 callgsubr
            -48 374 callsubr
            -19 -54 callgsubr
            return
          </CharString>
          <CharString index="72">
            4 278 callsubr
            -17 vhcurveto
            -62 hlineto
            -14 360 callgsubr
            -4 377 callgsubr
            return
          </CharString>
          <CharString index="73">
            rmoveto
            -71 callgsubr
            return
          </CharString>
          <CharString index="74">
            hlineto
            48 28 18 22 13 hvcurveto
            350 callgsubr
            return
          </CharString>
          <CharString index="75">
            27 229 109 rmoveto
            458 callsubr
            176 377 callsubr
            51 hlineto
            43 16 -16 -42 hvcurveto
            -176 378 callsubr
            19 -109 rmoveto
            342 callsubr
            184 252 callgsubr
            -89 -24 callsubr
            return
          </CharString>
          <CharString index="76">
            287 hmoveto
            12 9 6 15 3 hvcurveto
            91 469 rlineto
            4 hlineto
            90 -469 rlineto
            -14 2 8 -7 14 hhcurveto
            141 529 callsubr
            14 2 hvcurveto
            108 600 rlineto
            14 2 -7 8 -16 hhcurveto
            -104 hlineto
            -14 -9 -7 -15 -1 hvcurveto
            -57 -492 rlineto
            -8 hlineto
            -98 497 rlineto
            13 -2 -9 4 -11 hhcurveto
            -112 hlineto
            -9 -10 -4 -14 -2 hvcurveto
            -96 -496 rlineto
            -7 hlineto
            -58 493 rlineto
            17 -1 -9 4 -14 hhcurveto
            -104 hlineto
            -15 -8 -7 -14 2 hvcurveto
            107 -601 rlineto
            -16 2 9 -5 14 hhcurveto
            return
          </CharString>
          <CharString index="77">
            rmoveto
            -9 -4 -5 -8 vhcurveto
            -132 hlineto
            -8 -4 5 9 hvcurveto
            161 176 callgsubr
            return
          </CharString>
          <CharString index="78">
            259 hmoveto
            16 6 6 15 2 hvcurveto
            60 338 rlineto
            8 hlineto
            61 -338 rlineto
            -16 3 6 -5 15 hhcurveto
            114 hlineto
            15 6 5 16 3 hvcurveto
            100 468 rlineto
            13 3 -5 8 -13 hhcurveto
            -96 hlineto
            -14 -8 -5 -16 -2 hvcurveto
            -46 -342 rlineto
            -8 hlineto
            -69 342 rlineto
            16 -3 -8 5 -14 hhcurveto
            -88 hlineto
            -13 -8 -6 -15 -2 hvcurveto
            -71 -342 rlineto
            -8 hlineto
            -45 342 rlineto
            17 -2 -8 4 -14 hhcurveto
            -96 hlineto
            -14 -4 -6 -15 3 hvcurveto
            100 -468 rlineto
            -14 3 7 -7 14 hhcurveto
            return
          </CharString>
          <CharString index="79">
            -9 -4 -5 -8 vhcurveto
            return
          </CharString>
          <CharString index="80">
            -6 -28 callgsubr
            return
          </CharString>
          <CharString index="81">
            198 callgsubr
            8 7 23 26 29 35 21 25 23 29 25 29 rrcurveto
            4 -95 hlineto
            -16 8 -8 15 vhcurveto
            67 -101 callsubr
            return
          </CharString>
          <CharString index="82">
            -17 -7 -8 -15 hvcurveto
            -57 402 callgsubr
            return
          </CharString>
          <CharString index="83">
            131 callsubr
            -184 7 callgsubr
            return
          </CharString>
          <CharString index="84">
            -8 -4 5 9 443 callgsubr
            return
          </CharString>
          <CharString index="85">
            96 callgsubr
            51 hlineto
            return
          </CharString>
          <CharString index="86">
            vlineto
            -11 callgsubr
            return
          </CharString>
          <CharString index="87">
            -36 callgsubr
            -70 hlineto
            -17 -7 -8 -16 hvcurveto
            return
          </CharString>
          <CharString index="88">
            hlineto
            -93 callgsubr
            return
          </CharString>
          <CharString index="89">
            -7 callgsubr
            26 151 callgsubr
            return
          </CharString>
          <CharString index="90">
            -16 -8 196 callsubr
            -15 -84 callgsubr
            return
          </CharString>
          <CharString index="91">
            vlineto
            29 -38 -14 callsubr
            return
          </CharString>
          <CharString index="92">
            hlineto
            -65 callsubr
            return
          </CharString>
          <CharString index="93">
            -73 callsubr
            -123 194 rlineto
            return
          </CharString>
          <CharString index="94">
            -49 -18 -16 -50 vhcurveto
            -94 hlineto
            -46 -20 12 43 hvcurveto
            16 vlineto
            26 callsubr
            return
          </CharString>
          <CharString index="95">
            -49 callsubr
            -47 vlineto
            return
          </CharString>
          <CharString index="96">
            16 -33 callsubr
            8 16 hvcurveto
            return
          </CharString>
          <CharString index="97">
            156 callsubr
            -143 13 callgsubr
            116 -98 callgsubr
            return
          </CharString>
          <CharString index="98">
            138 -169 rmoveto
            110 55 63 106 28 hvcurveto
            122 488 rlineto
            14 3 -8 8 -15 hhcurveto
            -84 hlineto
            -13 -9 -6 -15 -3 hvcurveto
            -85 -369 rlineto
            -4 hlineto
            -86 369 rlineto
            16 -4 -8 5 -13 hhcurveto
            -89 hlineto
            -14 -5 -7 -14 4 hvcurveto
            117 -441 rlineto
            -14 4 6 -7 15 hhcurveto
            53 hlineto
            -63 -15 -17 -22 -88 hhcurveto
            -21 hlineto
            -15 -5 -8 -14 hvcurveto
            -67 494 callsubr
            return
          </CharString>
          <CharString index="99">
            155 callgsubr
            -234 vlineto
            215 callsubr
            23 vlineto
            25 16 13 20 vhcurveto
            64 336 callgsubr
            16 hvcurveto
            57 83 callgsubr
            -24 -12 12 23 hvcurveto
            43 vlineto
            26 13 10 18 vhcurveto
            return
          </CharString>
          <CharString index="100">
            -39 callsubr
            -112 65 -31 95 vhcurveto
            85 55 callgsubr
            return
          </CharString>
          <CharString index="101">
            -16 -8 -8 -14 hvcurveto
            -58 vlineto
            -16 -84 callgsubr
            return
          </CharString>
          <CharString index="102">
            -30 callgsubr
            -118 9 callgsubr
            -93 vlineto
            return
          </CharString>
          <CharString index="103">
            161 247 callgsubr
            303 vlineto
            43 14 33 55 vhcurveto
            36 hlineto
            43 16 -17 -42 hvcurveto
            -320 vlineto
            -16 7 -5 180 callsubr
            5 16 hvcurveto
            326 vlineto
            105 -52 498 callsubr
            -41 -41 -15 -39 -16 hvcurveto
            -4 return
          </CharString>
          <CharString index="104">
            hvcurveto
            -57 vlineto
            return
          </CharString>
          <CharString index="105">
            65 203 339 rmoveto
            -7 248 callsubr
            172 vlineto
            8 4 3 7 vhcurveto
            98 hlineto
            43 19 -17 -42 hvcurveto
            -78 vlineto
            -40 -19 -17 -43 vhcurveto
            -130 -339 448 callgsubr
            205 82 callsubr
            67 hlineto
            100 -216 rlineto
            -17 7 9 -4 23 hhcurveto
            81 hlineto
            14 12 7 17 -9 hvcurveto
            -107 223 rlineto
            4 vlineto
            57 24 32 51 75 vvcurveto
            78 vlineto
            104 -62 60 -104 vhcurveto
            -238 58 callgsubr
            return
          </CharString>
          <CharString index="106" raw="1">
            231dc106 0b  
          </CharString>
          <CharString index="107">
            44 vlineto
            78 -50 40 -80 vhcurveto
            -95 hlineto
            -20 -11 3 30 hvcurveto
            4 vlineto
            28 11 4 20 vhcurveto
            139 18 callsubr
            return
          </CharString>
          <CharString index="108">
            370 callsubr
            -10 hhcurveto
            -65 hlineto
            -11 -6 -4 -7 -5 hvcurveto
            -63 60 callsubr
            return
          </CharString>
          <CharString index="109">
            rmoveto
            -8 callgsubr
            return
          </CharString>
          <CharString index="110">
            -16 -8 -6 -16 hvcurveto
            -58 132 callgsubr
            return
          </CharString>
          <CharString index="111">
            vlineto
            -42 16 -26 38 -13 vhcurveto
            -4 vlineto
            191 callsubr
            return
          </CharString>
          <CharString index="112">
            10 callsubr
            -28 vlineto
            return
          </CharString>
          <CharString index="113">
            131 -179 -49 callgsubr
            82 -63 callsubr
            return
          </CharString>
          <CharString index="114">
            -19 callgsubr
            endchar
          </CharString>
          <CharString index="115">
            197 callgsubr
            -16 vhcurveto
            return
          </CharString>
          <CharString index="116">
            40 21 23 43 vhcurveto
            return
          </CharString>
          <CharString index="117">
            -16 -8 -8 -15 hvcurveto
            -56 vlineto
            -17 8 -8 16 vhcurveto
            70 18 callgsubr
            return
          </CharString>
          <CharString index="118">
            hlineto
            -103 callgsubr
            return
          </CharString>
          <CharString index="119">
            rmoveto
            -43 -14 -32 492 callgsubr
            16 42 hvcurveto
            149 334 callsubr
            -366 rmoveto
            37 45 16 39 16 hvcurveto
            4 -76 hlineto
            -41 -16 -17 -43 vhcurveto
            -171 299 callsubr
            -69 vlineto
            -15 5 -5 16 vhcurveto
            192 hlineto
            104 61 58 104 hvcurveto
            493 177 callsubr
            -231 131 callsubr
            -161 274 callgsubr
            return
          </CharString>
          <CharString index="120">
            15 -8 7 -14 vhcurveto
            return
          </CharString>
          <CharString index="121">
            26 11 -12 -26 -25 -10 -15 29 callgsubr
            return
          </CharString>
          <CharString index="122">
            rmoveto
            78 39 45 84 hvcurveto
            7 vlineto
            22 -10 12 -19 vhcurveto
            -46 hlineto
            -16 -13 -9 -22 hvcurveto
            -10 vlineto
            -23 -9 -11 -26 vhcurveto
            -93 34 callsubr
            return
          </CharString>
          <CharString index="123">
            35 301 247 callgsubr
            214 vlineto
            183 386 rlineto
            13 7 -8 9 -13 hhcurveto
            -106 hlineto
            -13 -6 -6 -15 -5 hvcurveto
            -98 -243 rlineto
            -7 hlineto
            -100 243 rlineto
            15 -6 -5 6 -13 hhcurveto
            -106 hlineto
            -11 -9 -9 -13 6 hvcurveto
            183 -386 rlineto
            -214 -21 callsubr
            return
          </CharString>
          <CharString index="124">
            31 14 16 33 vhcurveto
            22 hlineto
            16 8 8 14 465 callsubr
            -32 hlineto
            -23 -14 13 23 hvcurveto
            return
          </CharString>
          <CharString index="125">
            4 callgsubr
            90 -104 callgsubr
            return
          </CharString>
          <CharString index="126">
            114 73 callgsubr
            return
          </CharString>
          <CharString index="127">
            hlineto
            -17 8 -6 16 vhcurveto
            67 -106 callgsubr
            return
          </CharString>
          <CharString index="128">
            229 -85 callsubr
            return
          </CharString>
          <CharString index="129">
            -25 callsubr
            306 120 callsubr
            323 callsubr
            -66 vlineto
            return
          </CharString>
          <CharString index="130">
            50 hlineto
            -4 callgsubr
            return
          </CharString>
          <CharString index="131">
            rmoveto
            455 callsubr
            50 hlineto
            15 7 8 15 hvcurveto
            return
          </CharString>
          <CharString index="132">
            -6 623 rmoveto
            -96 callgsubr
            return
          </CharString>
          <CharString index="133">
            17 callsubr
            71 335 callgsubr
            return
          </CharString>
          <CharString index="134">
            hlineto
            -18 -12 -12 -17 hvcurveto
            return
          </CharString>
          <CharString index="135">
            7 -5 14 vhcurveto
            return
          </CharString>
          <CharString index="136">
            -43 callsubr
            83 hlineto
            13 return
          </CharString>
          <CharString index="137">
            -34 callgsubr
            124 12 callgsubr
            return
          </CharString>
          <CharString index="138">
            vvcurveto
            -32 135 callgsubr
            return
          </CharString>
          <CharString index="139">
            0 -39 -18 -54 -55 vhcurveto
            -63 -65 -33 callgsubr
            return
          </CharString>
          <CharString index="140">
            rmoveto
            23 callgsubr
            return
          </CharString>
          <CharString index="141">
            hlineto
            -26 -10 11 549 callgsubr
            22 -10 9 -16 vhcurveto
            -49 hlineto
            -20 -9 -12 -22 hvcurveto
            -8 vlineto
            -80 41 -48 77 vhcurveto
            return
          </CharString>
          <CharString index="142">
            -11 callgsubr
            86 hlineto
            15 5 4 17 hvcurveto
            468 300 callgsubr
            -86 hlineto
            -14 -6 -5 -16 hvcurveto
            return
          </CharString>
          <CharString index="143">
            140 callsubr
            141 callgsubr
            return
          </CharString>
          <CharString index="144">
            185 callgsubr
            83 vlineto
            99 -61 49 -94 -100 -55 -49 -99 vhcurveto
            return
          </CharString>
          <CharString index="145">
            39 48 21 402 callsubr
            383 hlineto
            15 5 9 14 hvcurveto
            76 vlineto
            14 -5 5 -15 vhcurveto
            -254 4 hlineto
            249 362 rlineto
            11 16 4 11 25 vvcurveto
            86 38 callgsubr
            -355 378 callgsubr
            -76 469 callgsubr
            239 -4 hlineto
            -265 -391 rlineto
            -12 -15 -1 -16 -18 vvcurveto
            return
          </CharString>
          <CharString index="146">
            103 169 hmoveto
            50 callgsubr
            return
          </CharString>
          <CharString index="147">
            -105 201 callgsubr
            return
          </CharString>
          <CharString index="148">
            118 -48 callsubr
            return
          </CharString>
          <CharString index="149">
            hlineto
            -16 -8 -8 -16 hvcurveto
            return
          </CharString>
          <CharString index="150">
            30 13 26 33 54 vvcurveto
            33 vlineto
            108 -49 56 -115 vhcurveto
            -95 hlineto
            -73 callgsubr
            76 hlineto
            55 13 -18 -44 hvcurveto
            -22 vlineto
            -27 -6 -31 -60 vhcurveto
            -37 hlineto
            -14 -9 -8 -17 hvcurveto
            -55 vlineto
            -16 -84 callgsubr
            32 hlineto
            54 16 -27 -54 hvcurveto
            -9 vlineto
            -54 -23 -25 -47 vhcurveto
            -14 hlineto
            -49 -27 20 51 hvcurveto
            26 200 callsubr
            -68 493 callgsubr
            -25 vlineto
            -112 64 -64 112 vhcurveto
            41 hlineto
            117 56 67 109 hvcurveto
            return
          </CharString>
          <CharString index="151">
            -25 callsubr
            303 139 callgsubr
            return
          </CharString>
          <CharString index="152">
            306 callgsubr
            32 hlineto
            16 10 -11 -14 hvcurveto
            return
          </CharString>
          <CharString index="153">
            hlineto
            33 callgsubr
            return
          </CharString>
          <CharString index="154">
            -7 5 -14 vhcurveto
            return
          </CharString>
          <CharString index="155">
            rmoveto
            9 11 2 5 8 vvcurveto
            9 -4 4 -12 9 vhcurveto
            -28 22 rlineto
            5 -6 -5 1 -3 hhcurveto
            -10 -6 -9 -9 -5 hvcurveto
            -33 -19 -18 -28 -31 hhcurveto
            -4 100 callsubr
            -75 32 -60 71 vhcurveto
            9 -4 hlineto
            -1 -34 -21 -43 -34 hvcurveto
            -53 -67 rlineto
            -3 -4 -2 -5 -5 vvcurveto
            -9 5 -8 12 vhcurveto
            80 hlineto
            25 10 13 16 13 hvcurveto
            -455 636 rmoveto
            -88 callsubr
            8 hlineto
            71 3 43 52 76 vvcurveto
            139 -104 callgsubr
            293 -105 callsubr
            endchar
          </CharString>
          <CharString index="156">
            91 callsubr
            -3 -6 3 -8 hhcurveto
            -59 173 callsubr
          </CharString>
          <CharString index="157">
            74 callgsubr
            -4 hlineto
            528 callgsubr
            return
          </CharString>
          <CharString index="158">
            286 -95 callsubr
            return
          </CharString>
          <CharString index="159">
            62 320 192 rmoveto
            350 callgsubr
            6 17 hvcurveto
            262 84 callsubr
            22 hlineto
            81 callgsubr
            183 -105 callsubr
            -642 275 callgsubr
            86 hlineto
            16 11 5 11 10 hvcurveto
            65 71 rlineto
            6 171 409 callgsubr
            133 -98 callgsubr
            -178 vlineto
            -37 -19 -32 -55 vhcurveto
            return
          </CharString>
          <CharString index="160">
            66 400 rmoveto
            8 3 -3 -8 hvcurveto
            -227 vlineto
            -105 62 -57 104 vhcurveto
            61 298 callgsubr
            -5 7 -16 vhcurveto
            -40 hlineto
            -43 -17 17 41 hvcurveto
            221 82 callsubr
            78 298 callgsubr
            -5 7 -16 vhcurveto
            -78 425 callgsubr
            -84 hlineto
            -14 -8 473 callgsubr
            -40 299 callsubr
            -69 vlineto
            -15 4 -5 17 vhcurveto
            return
          </CharString>
          <CharString index="161">
            136 callsubr
            8 8 1 10 hhcurveto
            23 callsubr
            return
          </CharString>
          <CharString index="162">
            hlineto
            -104 callsubr
            return
          </CharString>
          <CharString index="163">
            65 callgsubr
            hvcurveto
            return
          </CharString>
          <CharString index="164">
            -103 59 -58 102 vhcurveto
            93 callgsubr
            return
          </CharString>
          <CharString index="165">
            -71 380 89 rmoveto
            384 callgsubr
            -129 hlineto
            -42 -16 17 42 hvcurveto
            172 vlineto
            42 16 17 42 vhcurveto
            129 510 callgsubr
            -149 -24 callsubr
            149 284 callsubr
            return
          </CharString>
          <CharString index="166">
            273 324 178 rmoveto
            -52 -18 -24 -51 vhcurveto
            -28 hlineto
            -50 -17 17 45 hvcurveto
            9 vlineto
            42 15 17 52 vhcurveto
            85 405 callgsubr
            -8 hvcurveto
            280 70 rmoveto
            518 callgsubr
            -131 hlineto
            -7 248 callsubr
            51 vlineto
            42 17 16 43 vhcurveto
            35 hlineto
            43 16 -17 -42 hvcurveto
            -154 -158 rmoveto
            7 4 4 8 vhcurveto
            231 494 callgsubr
            132 423 callgsubr
            -104 vhcurveto
            -44 hlineto
            -42 -51 -9 -46 -26 hvcurveto
            46 -26 -58 9 -42 hhcurveto
            -159 hlineto
            -15 209 callsubr
            15 vhcurveto
            163 hlineto
            39 19 -14 -43 hvcurveto
            -13 vlineto
            -5 -2 -3 -5 vhcurveto
            -110 hlineto
            -105 -60 -50 -105 hvcurveto
            -11 vlineto
            -101 63 -55 102 vhcurveto
            16 hlineto
            60 56 14 43 25 hvcurveto
            -39 28 37 -18 60 hhcurveto
            205 510 callgsubr
            -184 528 callsubr
            42 hvcurveto
            return
          </CharString>
          <CharString index="167">
            -105 rlineto
            -7 -4 3 -6 9 hhcurveto
            59 164 callsubr
            3 6 -3 8 hhcurveto
            60 hlineto
            return
          </CharString>
          <CharString index="168">
            32 hvcurveto
            138 97 callgsubr
            return
          </CharString>
          <CharString index="169">
            20 10 -7 -20 hvcurveto
            -38 vlineto
            -21 -6 -11 -24 vhcurveto
            -73 hlineto
            -27 -18 10 32 hvcurveto
            4 -50 callgsubr
            -188 vlineto
            -99 callsubr
            67 hlineto
            16 8 6 17 hvcurveto
            69 4 vlineto
            -18 9 20 -10 33 hhcurveto
            69 284 callgsubr
            48 vlineto
            78 -50 40 -80 vhcurveto
            -101 hlineto
            385 callgsubr
            4 vlineto
            21 6 11 24 vhcurveto
            145 4 callgsubr
            return
          </CharString>
          <CharString index="170">
            58 callgsubr
            85 hlineto
            153 callgsubr
            hvcurveto
            return
          </CharString>
          <CharString index="171">
            rmoveto
            80 callgsubr
            return
          </CharString>
          <CharString index="172">
            25 46 66 vvcurveto
            69 callsubr
          </CharString>
          <CharString index="173">
            vlineto
            -25 7 -12 14 -6 vhcurveto
            -4 -230 vlineto
            471 callsubr
            -3 -9 hvcurveto
            -30 47 callgsubr
            -85 374 callsubr
            -15 vlineto
            -85 42 -43 93 vhcurveto
            93 hlineto
            62 callsubr
            92 469 callsubr
            64 -19 callgsubr
            -108 hlineto
            -36 -9 9 30 hvcurveto
            endchar
          </CharString>
          <CharString index="174">
            rmoveto
            68 callsubr
            return
          </CharString>
          <CharString index="175">
            324 callsubr
            -67 vlineto
            -75 callsubr
            return
          </CharString>
          <CharString index="176">
            -55 callgsubr
            endchar
          </CharString>
          <CharString index="177">
            vlineto
            29 -38 19 callsubr
            77 -63 callsubr
            -124 196 rlineto
            return
          </CharString>
          <CharString index="178">
            385 callgsubr
            8 vlineto
            21 6 11 24 vhcurveto
            108 18 callsubr
            return
          </CharString>
          <CharString index="179">
            144 callsubr
            -5 -5 -7 vhcurveto
            -80 hlineto
            return
          </CharString>
          <CharString index="180">
            rmoveto
            -25 callsubr
            274 395 callgsubr
            -116 -55 -65 -103 hvcurveto
            -67 vlineto
            -72 27 -55 56 -27 vhcurveto
            -79 -106 292 callgsubr
            102 rlineto
            56 23 30 50 79 vvcurveto
            387 callsubr
            70 230 callgsubr
            113 66 callgsubr
            64 -74 callgsubr
            endchar
          </CharString>
          <CharString index="181">
            -56 callgsubr
            -72 vlineto
            29 -38 19 callsubr
            79 -63 callsubr
            -124 196 rlineto
            return
          </CharString>
          <CharString index="182">
            hlineto
            -18 callsubr
            -17 -62 callsubr
            36 82 callgsubr
            4 return
          </CharString>
          <CharString index="183">
            hlineto
            -69 callsubr
            -468 -21 callsubr
            return
          </CharString>
          <CharString index="184">
            239 callgsubr
            -39 callsubr
            return
          </CharString>
          <CharString index="185">
            rmoveto
            59 callgsubr
            return
          </CharString>
          <CharString index="186">
            121 callsubr
            121 vlineto
            155 -164 rlineto
            -13 -16 -19 -10 -27 hhcurveto
            return
          </CharString>
          <CharString index="187">
            -75 callsubr
            endchar
          </CharString>
          <CharString index="188">
            -4 callgsubr
            -110 -59 -64 -106 -1 hvcurveto
            343 callgsubr
            -64 107 vhcurveto
            return
          </CharString>
          <CharString index="189">
            vlineto
            8 4 3 8 vhcurveto
            return
          </CharString>
          <CharString index="190">
            rmoveto
            224 callsubr
            8 384 callsubr
            154 -137 rlineto
            -4 -11 -12 -3 -15 hhcurveto
            return
          </CharString>
          <CharString index="191">
            vlineto
            9 callsubr
            return
          </CharString>
          <CharString index="192">
            18 9 hvcurveto
            4 -69 -26 callgsubr
            return
          </CharString>
          <CharString index="193">
            hlineto
            16 8 6 17 hvcurveto
            51 8 callsubr
            return
          </CharString>
          <CharString index="194">
            105 callgsubr
            24 257 callsubr
            18 30 callsubr
            return
          </CharString>
          <CharString index="195">
            46 25 hvcurveto
            1 2 2 5 5 vvcurveto
            10 -5 7 -11 8 vhcurveto
            -28 22 rlineto
            8 -10 -4 1 -5 hhcurveto
            return
          </CharString>
          <CharString index="196">
            hlineto
            115 callsubr
            return
          </CharString>
          <CharString index="197">
            -67 callsubr
            44 5 callgsubr
            -139 hmoveto
            -100 callgsubr
            -203 vlineto
            -37 -18 -18 -35 vhcurveto
            -4 hlineto
            -38 -16 19 36 hvcurveto
            203 -104 callgsubr
            endchar
          </CharString>
          <CharString index="198">
            rmoveto
            65 hlineto
            11 6 4 7 5 hvcurveto
            63 105 rlineto
            7 4 -2 6 -10 505 callgsubr
            -5 542 callsubr
            -32 -66 -33 66 rlineto
            9 return
          </CharString>
          <CharString index="199">
            13 85 callsubr
            return
          </CharString>
          <CharString index="200">
            37 45 15 39 16 hvcurveto
            4 -33 hlineto
            return
          </CharString>
          <CharString index="201">
            99 callsubr
            endchar
          </CharString>
          <CharString index="202">
            142 callgsubr
            64 hlineto
            276 callsubr
            return
          </CharString>
          <CharString index="203">
            -52 -30 -68 -87 vhcurveto
            -8 hlineto
            -63 -33 11 49 hvcurveto
            4 hlineto
            82 70 31 106 101 -70 37 -82 hvcurveto
            return
          </CharString>
          <CharString index="204">
            -28 callsubr
            -132 87 callgsubr
            return
          </CharString>
          <CharString index="205">
            -67 -30 -48 -87 vhcurveto
            return
          </CharString>
          <CharString index="206">
            192 callsubr
            -286 -80 callgsubr
            return
          </CharString>
          <CharString index="207">
            hlineto
            -70 callgsubr
            return
          </CharString>
          <CharString index="208">
            rmoveto
            -99 callgsubr
            -757 147 callgsubr
            return
          </CharString>
          <CharString index="209">
            207 callgsubr
            -10 -4 418 callsubr
            -11 return
          </CharString>
          <CharString index="210">
            -33 415 hmoveto
            118 callsubr
            return
          </CharString>
          <CharString index="211">
            417 rmoveto
            -4 hlineto
            14 -9 -20 10 -31 hhcurveto
            -58 -22 460 callsubr
            -4 hlineto
            89 callgsubr
            return
          </CharString>
          <CharString index="212">
            454 -48 callsubr
            return
          </CharString>
          <CharString index="213">
            rmoveto
            411 callsubr
            -80 hlineto
            -27 -16 7 15 -8 hvcurveto
            189 265 rlineto
            -196 77 rmoveto
            217 callgsubr
            80 hlineto
            28 16 -7 -16 8 hvcurveto
            -190 -267 rlineto
            312 400 rmoveto
            -12 8 -10 -1 -9 -12 -17 -24 rcurveline
            19 -27 -35 10 -43 hhcurveto
            -121 131 callsubr
            -317 vlineto
            -30 5 -26 9 -22 vhcurveto
            -28 -40 -9 -13 3 -9 11 -8 rlinecurve
            21 -16 12 -7 10 0 9 12 rlinecurve
            17 24 rlineto
            -18 27 35 -10 43 hhcurveto
            121 525 callsubr
            317 vlineto
            29 -5 26 -9 21 vhcurveto
            30 42 8 13 -2 9 -12 8 rlinecurve
            endchar
          </CharString>
          <CharString index="214">
            125 callgsubr
            -71 446 callsubr
            30 230 callgsubr
            144 66 callgsubr
            78 -74 callgsubr
            endchar
          </CharString>
          <CharString index="215">
            vlineto
            -48 -24 -24 -49 vhcurveto
            return
          </CharString>
          <CharString index="216">
            rmoveto
            14 -7 5 -13 vhcurveto
            -72 hlineto
            -14 -6 -6 -14 hvcurveto
            -199 531 callsubr
            53 101 rlineto
            12 25 11 20 34 vvcurveto
            return
          </CharString>
          <CharString index="217">
            hlineto
            317 callsubr
            -89 callsubr
            55 vlineto
            15 -79 callsubr
            -95 319 callsubr
            95 -74 callgsubr
            endchar
          </CharString>
          <CharString index="218">
            vlineto
            16 -7 5 -14 vhcurveto
            -85 58 callgsubr
            return
          </CharString>
          <CharString index="219">
            140 callgsubr
            -79 -32 return
          </CharString>
          <CharString index="220">
            163 callgsubr
            65 476 callsubr
            6 251 callgsubr
          </CharString>
          <CharString index="221">
            vlineto
            110 -61 61 -109 vhcurveto
            return
          </CharString>
          <CharString index="222">
            7 4 -6 -8 hvcurveto
            return
          </CharString>
          <CharString index="223">
            41 18 -18 -38 hvcurveto
            return
          </CharString>
          <CharString index="224">
            rmoveto
            -17 callsubr
            53 419 callgsubr
            -283 vlineto
            -110 71 -85 129 vhcurveto
            153 491 callgsubr
            57 vlineto
            16 -7 8 -17 vhcurveto
            -128 hlineto
            -73 -37 33 61 hvcurveto
            278 420 callgsubr
            156 419 callgsubr
            -85 vlineto
            -49 -25 -13 -48 vhcurveto
            -16 hlineto
            -16 -8 -7 -16 hvcurveto
            -55 132 callgsubr
            33 hlineto
            109 62 56 108 hvcurveto
            85 420 callgsubr
            41 -91 callgsubr
            endchar
          </CharString>
          <CharString index="225">
            354 callsubr
            8 -15 vhcurveto
            -211 165 callsubr
            500 111 callsubr
            return
          </CharString>
          <CharString index="226">
            232 callgsubr
            -8 5 -12 174 callgsubr
            return
          </CharString>
          <CharString index="227">
            -13 callgsubr
            -97 hlineto
            return
          </CharString>
          <CharString index="228">
            -47 -17 21 45 hvcurveto
            return
          </CharString>
          <CharString index="229">
            rmoveto
            -37 -19 -32 -55 vhcurveto
            return
          </CharString>
          <CharString index="230">
            -16 8 -8 15 vhcurveto
            return
          </CharString>
          <CharString index="231">
            132 callsubr
            hlineto
            endchar
          </CharString>
          <CharString index="232">
            -91 callsubr
            -88 -4 vlineto
            14 -9 -20 10 -31 hhcurveto
            -58 -22 460 callsubr
            return
          </CharString>
          <CharString index="233">
            -51 rmoveto
            14 -7 168 callsubr
            8 -5 9 7 return
          </CharString>
          <CharString index="234">
            -57 rmoveto
            -54 -19 17 35 34 14 24 32 hvcurveto
            77 hlineto
            17 17 2 4 16 hvcurveto
            -54 vlineto
            -34 -13 -28 -60 vhcurveto
            -135 276 rmoveto
            17 callsubr
            66 335 callgsubr
            138 341 callsubr
            -60 vlineto
            -12 -2 -11 -3 -10 vhcurveto
            -24 45 callsubr
            -65 427 callgsubr
            return
          </CharString>
          <CharString index="235">
            23 callsubr
            -110 -59 -64 -106 -1 hvcurveto
            277 callsubr
            return
          </CharString>
          <CharString index="236">
            204 callsubr
            -10 492 callsubr
            -5 4 -9 vhcurveto
            -50 461 callsubr
            -9 hvcurveto
            endchar
          </CharString>
          <CharString index="237">
            rmoveto
            -15 -7 -5 -16 hvcurveto
            -453 421 callgsubr
            -59 hlineto
            -42 -16 17 42 hvcurveto
            88 468 callgsubr
            -85 hlineto
            -14 -7 -6 -15 hvcurveto
            -94 7 callgsubr
            100 525 callsubr
            460 vlineto
            15 47 callsubr
            endchar
          </CharString>
          <CharString index="238">
            hlineto
            203 callgsubr
            return
          </CharString>
          <CharString index="239">
            hlineto
            8 4 -5 -9 hvcurveto
            -237 vlineto
            -53 -27 -32 -53 vhcurveto
            -50 78 callgsubr
            return
          </CharString>
          <CharString index="240">
            hlineto
            25 callgsubr
            return
          </CharString>
          <CharString index="241">
            -12 callgsubr
            88 271 callgsubr
            -270 -37 callgsubr
            return
          </CharString>
          <CharString index="242">
            302 rmoveto
            -37 -18 -18 -35 vhcurveto
            -4 hlineto
            -38 -16 19 36 hvcurveto
            203 -104 callgsubr
            87 -98 callgsubr
            return
          </CharString>
          <CharString index="243">
            431 callgsubr
            vlineto
            237 callsubr
            return
          </CharString>
          <CharString index="244">
            vlineto
            -9 -4 -5 -8 vhcurveto
            -154 hlineto
            205 callsubr
            108 hlineto
            -58 callgsubr
            -9 hvcurveto
            return
          </CharString>
          <CharString index="245">
            247 rmoveto
            -40 -21 -23 -43 vhcurveto
            -23 hlineto
            -49 -28 24 48 hvcurveto
            30 -87 callgsubr
            return
          </CharString>
          <CharString index="246">
            hlineto
            -71 callsubr
            -201 vlineto
            return
          </CharString>
          <CharString index="247">
            -12 callgsubr
            108 126 callgsubr
            return
          </CharString>
          <CharString index="248">
            194 callgsubr
            -109 -61 295 callsubr
            return
          </CharString>
          <CharString index="249">
            85 170 callgsubr
            return
          </CharString>
          <CharString index="250">
            7 4 7 5 hvcurveto
            62 105 rlineto
            7 4 -2 6 -9 hhcurveto
            -60 hlineto
            -8 -6 -3 -9 return
          </CharString>
          <CharString index="251">
            89 callsubr
            -28 vlineto
            -9 return
          </CharString>
          <CharString index="252">
            rmoveto
            454 callsubr
            72 131 callgsubr
            endchar
          </CharString>
          <CharString index="253">
            hhcurveto
            -7 callsubr
            64 7 callsubr
          </CharString>
          <CharString index="254">
            hlineto
            -59 callsubr
            482 -104 callgsubr
            53 -105 callsubr
            endchar
          </CharString>
          <CharString index="255">
            vlineto
            520 callsubr
            return
          </CharString>
          <CharString index="256">
            vlineto
            97 callsubr
            return
          </CharString>
          <CharString index="257">
            hlineto
            -49 -19 14 48 hvcurveto
            return
          </CharString>
          <CharString index="258">
            -98 callgsubr
            -233 vlineto
            -38 -7 -32 -53 vhcurveto
            212 callsubr
            return
          </CharString>
          <CharString index="259">
            -97 67 -51 102 vhcurveto
            107 callgsubr
          </CharString>
          <CharString index="260">
            225 callgsubr
            -19 -41 callsubr
            31 284 callgsubr
            41 vlineto
            81 -50 40 -80 vhcurveto
            -50 352 callgsubr
            return
          </CharString>
          <CharString index="261">
            rmoveto
            -47 -14 -27 -45 vhcurveto
            -6 hlineto
            -45 -14 27 47 hvcurveto
            53 vlineto
            47 14 27 45 vhcurveto
            6 446 callgsubr
            return
          </CharString>
          <CharString index="262">
            302 callgsubr
            -62 107 vhcurveto
            return
          </CharString>
          <CharString index="263">
            rmoveto
            -28 callsubr
            return
          </CharString>
          <CharString index="264">
            344 186 rmoveto
            285 callgsubr
            -45 523 callgsubr
            172 vlineto
            217 callgsubr
            45 hlineto
            55 14 -33 -43 hvcurveto
            -102 -324 rmoveto
            93 callsubr
            520 callsubr
            661 -48 callgsubr
            -226 -4 vlineto
            39 -16 -45 15 -37 hhcurveto
            -41 hlineto
            -104 -52 -58 -105 hvcurveto
            -184 274 callgsubr
            return
          </CharString>
          <CharString index="265">
            215 callgsubr
            358 -91 callsubr
            -24 417 callgsubr
            -160 hlineto
            -87 -54 -26 -94 -51 20 -30 308 callgsubr
            return
          </CharString>
          <CharString index="266">
            166 callgsubr
            16 return
          </CharString>
          <CharString index="267">
            7 14 hvcurveto
            89 vlineto
            14 return
          </CharString>
          <CharString index="268">
            vlineto
            -16 -14 -20 -14 -34 hhcurveto
            -55 hlineto
            -42 -13 19 29 hvcurveto
            5 vlineto
            25 16 13 20 vhcurveto
            62 336 callgsubr
            16 -77 callsubr
            -62 219 callgsubr
            10 vlineto
            26 13 10 18 vhcurveto
            return
          </CharString>
          <CharString index="269">
            rmoveto
            -35 22 -15 22 272 callgsubr
            255 237 rmoveto
            231 callgsubr
            return
          </CharString>
          <CharString index="270">
            -63 216 callsubr
            102 11 callsubr
            return
          </CharString>
          <CharString index="271">
            hlineto
            9 5 357 callgsubr
            33 -66 rlineto
            -9 return
          </CharString>
          <CharString index="272">
            hlineto
            -8 248 callsubr
            return
          </CharString>
          <CharString index="273">
            vlineto
            -85 42 -33 93 vhcurveto
            -7 callsubr
            return
          </CharString>
          <CharString index="274">
            -102 callgsubr
            -108 62 -62 108 vhcurveto
            -78 callsubr
            271 84 callsubr
            return
          </CharString>
          <CharString index="275">
            5 -12 vhcurveto
            -73 161 callgsubr
            -166 vlineto
            -15 return
          </CharString>
          <CharString index="276">
            396 callsubr
            4 -6 14 hhcurveto
            41 311 callgsubr
            return
          </CharString>
          <CharString index="277">
            -103 callgsubr
            54 -74 callgsubr
            -525 -67 callsubr
            330 -12 callsubr
            return
          </CharString>
          <CharString index="278">
            595 rmoveto
            15 6 8 14 hvcurveto
            44 417 callsubr
            -197 299 callsubr
            -44 483 callsubr
          </CharString>
          <CharString index="279">
            -69 callsubr
            -661 -21 callsubr
            return
          </CharString>
          <CharString index="280">
            hlineto
            -10 -2 184 callgsubr
            10 hhcurveto
            endchar
          </CharString>
          <CharString index="281">
            hlineto
            110 callgsubr
            return
          </CharString>
          <CharString index="282">
            456 callgsubr
            433 callsubr
            return
          </CharString>
          <CharString index="283">
            519 522 callsubr
            57 210 callsubr
            return
          </CharString>
          <CharString index="284">
            vlineto
            16 -7 5 -15 vhcurveto
            return
          </CharString>
          <CharString index="285">
            15 -75 callgsubr
            return
          </CharString>
          <CharString index="286">
            321 callsubr
            6 550 callsubr
            66 hlineto
            13 370 callgsubr
          </CharString>
          <CharString index="287">
            14 vhcurveto
            84 hlineto
            15 7 return
          </CharString>
          <CharString index="288">
            rmoveto
            7 -5 -6 63 callgsubr
            return
          </CharString>
          <CharString index="289">
            382 callgsubr
            129 callgsubr
            return
          </CharString>
          <CharString index="290">
            -94 -65 callgsubr
            return
          </CharString>
          <CharString index="291">
            290 rmoveto
            98 callsubr
            return
          </CharString>
          <CharString index="292">
            -7 hvcurveto
            -45 344 callgsubr
            return
          </CharString>
          <CharString index="293">
            468 callsubr
            45 38 callgsubr
            -198 403 callgsubr
            -45 484 callsubr
          </CharString>
          <CharString index="294">
            -55 -10 callgsubr
            return
          </CharString>
          <CharString index="295">
            hvcurveto
            -6 71 callgsubr
            return
          </CharString>
          <CharString index="296">
            -6 623 rmoveto
            -25 callsubr
            return
          </CharString>
          <CharString index="297">
            hhcurveto
            208 callgsubr
            return
          </CharString>
          <CharString index="298">
            -37 -13 -17 -34 -40 vvcurveto
            return
          </CharString>
          <CharString index="299">
            -91 callsubr
            -52 47 callgsubr
            return
          </CharString>
          <CharString index="300">
            269 callgsubr
            226 hlineto
            172 callsubr
            return
          </CharString>
          <CharString index="301">
            -266 rmoveto
            79 callsubr
            return
          </CharString>
          <CharString index="302">
            -5 166 callgsubr
            return
          </CharString>
          <CharString index="303">
            -8 -53 callsubr
            return
          </CharString>
          <CharString index="304">
            -58 callsubr
            49 7 callsubr
          </CharString>
          <CharString index="305">
            hhcurveto
            5 4 1 8 10 hvcurveto
            36 27 rlineto
            11 8 5 7 10 vvcurveto
            5 -2 5 -1 2 vhcurveto
            49 -24 -41 24 -66 hhcurveto
            return
          </CharString>
          <CharString index="306">
            vlineto
            78 -50 40 -80 vhcurveto
            -123 hlineto
            -20 -11 4 26 25 11 4 20 hvcurveto
            return
          </CharString>
          <CharString index="307">
            278 callsubr
            -14 vhcurveto
            return
          </CharString>
          <CharString index="308">
            rmoveto
            -41 callgsubr
            endchar
          </CharString>
          <CharString index="309">
            204 callgsubr
            -78 return
          </CharString>
          <CharString index="310">
            -482 -153 752 rmoveto
            -68 123 64 callgsubr
            36 -55 48 -58 88 -88 rlinecurve
            74 47 hlineto
            287 callgsubr
            -34 hlineto
            -82 -57 -41 -90 hvcurveto
            -10 vlineto
            return
          </CharString>
          <CharString index="311">
            rmoveto
            -11 vlineto
            102 callsubr
            421 callsubr
            return
          </CharString>
          <CharString index="312">
            435 callgsubr
            342 callgsubr
            hvcurveto
            45 callgsubr
            return
          </CharString>
          <CharString index="313">
            29 callsubr
            8 4 6 6 hvcurveto
            15 return
          </CharString>
          <CharString index="314">
            214 callsubr
            -90 hlineto
            return
          </CharString>
          <CharString index="315">
            vlineto
            -35 20 -29 35 -6 vhcurveto
            -4 vlineto
            -40 -13 -15 -36 -43 vvcurveto
            return
          </CharString>
          <CharString index="316">
            260 callsubr
            -7 return
          </CharString>
          <CharString index="317">
            vlineto
            196 callgsubr
            return
          </CharString>
          <CharString index="318">
            vvcurveto
            -76 535 callsubr
            87 hlineto
            106 49 53 92 hvcurveto
            22 vlineto
            68 -37 42 -92 -85 -26 -46 -57 vhcurveto
            -18 vlineto
            -20 7 -7 27 vhcurveto
            38 121 callgsubr
            16 vlineto
            10 3 11 17 20 3 -11 -10 vhcurveto
            -19 vlineto
            -35 -14 -15 -40 vhcurveto
            -72 hlineto
            -50 -18 15 47 hvcurveto
            81 vlineto
            47 18 21 45 vhcurveto
            return
          </CharString>
          <CharString index="319">
            -7 100 callsubr
            return
          </CharString>
          <CharString index="320">
            -45 callgsubr
            11 -5 6 14 vvcurveto
            14 4 return
          </CharString>
          <CharString index="321">
            -92 callgsubr
            457 callsubr
            return
          </CharString>
          <CharString index="322">
            -50 -21 -38 -78 -1 vhcurveto
            369 callsubr
            return
          </CharString>
          <CharString index="323">
            rmoveto
            110 callgsubr
            return
          </CharString>
          <CharString index="324">
            -51 rmoveto
            14 -7 5 -13 vhcurveto
            -72 526 callsubr
            -166 vlineto
            -15 8 457 callgsubr
          </CharString>
          <CharString index="325">
            18 callgsubr
            -28 vlineto
            return
          </CharString>
          <CharString index="326">
            7 293 callsubr
            return
          </CharString>
          <CharString index="327">
            rmoveto
            -90 callgsubr
            return
          </CharString>
          <CharString index="328">
            -62 hlineto
            -28 callsubr
            -134 hlineto
            205 callsubr
            88 264 callsubr
            return
          </CharString>
          <CharString index="329">
            vlineto
            15 -9 5 -12 -10 vhcurveto
            -149 -115 rlineto
            -14 -10 -6 -5 -20 vvcurveto
            -41 vlineto
            -21 5 -5 15 -11 vhcurveto
            149 -115 rlineto
            12 -10 9 5 15 vvcurveto
            return
          </CharString>
          <CharString index="330">
            hlineto
            -24 -10 492 callsubr
            -5 177 callgsubr
            return
          </CharString>
          <CharString index="331">
            33 callgsubr
            49 vlineto
            return
          </CharString>
          <CharString index="332">
            -6 -6 -14 hvcurveto
            return
          </CharString>
          <CharString index="333">
            rmoveto
            396 callsubr
            297 callgsubr
            -7 6 -13 hhcurveto
            -217 hmoveto
            -13 -9 -4 -15 397 callsubr
            42 477 callsubr
            6 hvcurveto
            71 96 rlineto
            14 10 -6 6 -13 hhcurveto
            endchar
          </CharString>
          <CharString index="334">
            hlineto
            -88 callsubr
            return
          </CharString>
          <CharString index="335">
            11 143 callsubr
            -4 hvcurveto
            -32 -66 return
          </CharString>
          <CharString index="336">
            vlineto
            -40 -28 -21 -49 vhcurveto
            return
          </CharString>
          <CharString index="337">
            -8 -4 -5 -7 vhcurveto
            return
          </CharString>
          <CharString index="338">
            -4 hlineto
            198 callgsubr
            8 7 23 26 29 35 21 25 23 29 25 29 rrcurveto
            -42 callgsubr
            271 84 callsubr
            23 hlineto
            return
          </CharString>
          <CharString index="339">
            -91 callsubr
            298 callsubr
            return
          </CharString>
          <CharString index="340">
            91 538 callgsubr
            -24 -12 -34 -36 vhcurveto
            -43 -47 29 callsubr
            8 4 6 6 hvcurveto
            11 9 return
          </CharString>
          <CharString index="341">
            rmoveto
            -14 7 -5 13 vhcurveto
            72 hlineto
            13 7 6 14 hvcurveto
            199 vlineto
            15 -8 5 -10 -7 -7 -4 -6 -4 vhcurveto
            -53 -101 rlineto
            -13 -25 -10 -20 -34 vvcurveto
            return
          </CharString>
          <CharString index="342">
            6 -9 14 vhcurveto
            89 311 callsubr
            return
          </CharString>
          <CharString index="343">
            310 243 callgsubr
            return
          </CharString>
          <CharString index="344">
            -7 -1 -7 -1 -7 vhcurveto
            -147 132 rlineto
            2 return
          </CharString>
          <CharString index="345">
            -18 -6 -81 callsubr
            6 -7 18 vhcurveto
            return
          </CharString>
          <CharString index="346">
            16 1 8 7 17 vvcurveto
            return
          </CharString>
          <CharString index="347">
            -5 7 -15 vhcurveto
            return
          </CharString>
          <CharString index="348">
            16 347 callgsubr
            return
          </CharString>
          <CharString index="349">
            6 -8 12 vhcurveto
            return
          </CharString>
          <CharString index="350">
            346 callsubr
            -6 543 callgsubr
          </CharString>
          <CharString index="351">
            vvcurveto
            -42 vlineto
            -108 62 -62 108 vhcurveto
            -78 callsubr
            return
          </CharString>
          <CharString index="352">
            rmoveto
            -39 -9 23 39 39 9 23 39 39 9 -23 -39 -39 -9 -23 -39 hvcurveto
            return
          </CharString>
          <CharString index="353">
            vlineto
            238 callgsubr
            return
          </CharString>
          <CharString index="354">
            -11 25 vhcurveto
            114 -17 rlineto
            15 -2 6 10 14 vvcurveto
            70 vlineto
            14 -6 7 -15 -2 vhcurveto
            -117 -18 20 140 rlineto
            -2 callgsubr
            -85 hlineto
            -14 -10 -5 -16 3 hvcurveto
            19 -140 -111 18 rlineto
            -16 2 -5 -7 -14 vvcurveto
            -70 vlineto
            -14 5 -10 16 2 vhcurveto
            return
          </CharString>
          <CharString index="355">
            -4 3 8 hvcurveto
            return
          </CharString>
          <CharString index="356">
            -61 callsubr
            -11 callsubr
            261 84 callsubr
            return
          </CharString>
          <CharString index="357">
            -138 hlineto
            -59 callsubr
            56 -104 callgsubr
            return
          </CharString>
          <CharString index="358">
            -103 55 -69 116 vhcurveto
            return
          </CharString>
          <CharString index="359">
            hlineto
            258 callgsubr
            return
          </CharString>
          <CharString index="360">
            214 154 callsubr
            -237 -53 154 callsubr
            return
          </CharString>
          <CharString index="361">
            232 callgsubr
            -7 5 -13 174 callgsubr
            -190 -88 119 callsubr
            endchar
          </CharString>
          <CharString index="362">
            142 callgsubr
            66 476 callsubr
            6 hvcurveto
            81 346 callsubr
            -5 9 return
          </CharString>
          <CharString index="363">
            vhcurveto
            35 hlineto
            60 38 324 callgsubr
            return
          </CharString>
          <CharString index="364">
            6 290 callgsubr
            return
          </CharString>
          <CharString index="365">
            623 rmoveto
            57 callgsubr
            518 callgsubr
            return
          </CharString>
          <CharString index="366">
            hlineto
            304 callsubr
            return
          </CharString>
          <CharString index="367">
            -5 312 callsubr
            5 return
          </CharString>
          <CharString index="368">
            32 272 callsubr
            return
          </CharString>
          <CharString index="369">
            287 callsubr
            13 5 6 15 return
          </CharString>
          <CharString index="370">
            -72 callgsubr
            70 114 callgsubr
            return
          </CharString>
          <CharString index="371">
            -98 callgsubr
            -133 vlineto
            -59 callsubr
            return
          </CharString>
          <CharString index="372">
            -65 callsubr
            128 -98 callgsubr
            return
          </CharString>
          <CharString index="373">
            hlineto
            13 7 160 callsubr
            return
          </CharString>
          <CharString index="374">
            18 6 7 17 hvcurveto
            return
          </CharString>
          <CharString index="375">
            281 callgsubr
            -17 -71 rmoveto
            29 9 -10 -28 hvcurveto
            -87 vlineto
            -28 -9 -11 -29 vhcurveto
            -23 hlineto
            -30 -8 11 28 hvcurveto
            87 vlineto
            28 8 10 30 vhcurveto
            return
          </CharString>
          <CharString index="376">
            rmoveto
            281 callsubr
            16 15 90 113 57 72 rrcurveto
            8 10 3 4 8 vvcurveto
            8 -4 4 -7 7 vhcurveto
            -25 23 rlineto
            8 -8 -5 2 -4 369 callgsubr
            return
          </CharString>
          <CharString index="377">
            322 callsubr
            -79 -32 38 64 hvcurveto
            17 9 vlineto
            94 304 callgsubr
            return
          </CharString>
          <CharString index="378">
            816 123 callgsubr
            -81 hlineto
            454 callsubr
            return
          </CharString>
          <CharString index="379">
            vlineto
            116 55 51 95 hvcurveto
            return
          </CharString>
          <CharString index="380">
            195 callsubr
            17 vhcurveto
            70 hlineto
            14 315 callsubr
            5 vlineto
            56 16 18 49 return
          </CharString>
          <CharString index="381">
            -57 65 -23 vhcurveto
            -77 -103 291 callsubr
            return
          </CharString>
          <CharString index="382">
            hlineto
            280 callsubr
            return
          </CharString>
          <CharString index="383">
            12 440 callsubr
            return
          </CharString>
          <CharString index="384">
            -51 155 callsubr
            return
          </CharString>
          <CharString index="385">
            vlineto
            19 -8 10 return
          </CharString>
          <CharString index="386">
            650 rmoveto
            539 callgsubr
            18 5 30 22 vhcurveto
            23 18 3 5 8 hhcurveto
            11 5 -5 -32 hvcurveto
            -9 vlineto
            -10 2 -3 8 vhcurveto
            40 530 callgsubr
            -56 -23 -17 -6 -25 -20 vhcurveto
            -26 return
          </CharString>
          <CharString index="387">
            -73 callgsubr
            54 408 callsubr
            return
          </CharString>
          <CharString index="388">
            -5 -6 -4 -6 -8 vvcurveto
            -8 6 -7 328 callsubr
            return
          </CharString>
          <CharString index="389">
            216 callgsubr
            7 10 -5 return
          </CharString>
          <CharString index="390">
            hlineto
            59 35 20 33 20 hvcurveto
            return
          </CharString>
          <CharString index="391">
            hlineto
            241 callsubr
            return
          </CharString>
          <CharString index="392">
            hlineto
            5 callsubr
            -95 72 -45 91 538 callgsubr
            return
          </CharString>
          <CharString index="393">
            -12 -11 -12 -20 -46 hhcurveto
            212 callsubr
            -91 44 -65 100 vhcurveto
            return
          </CharString>
          <CharString index="394">
            rmoveto
            14 -7 -10 436 callgsubr
            return
          </CharString>
          <CharString index="395">
            hlineto
            -30 -1 -18 -12 -30 hhcurveto
            -28 430 callsubr
            -17 356 callsubr
            74 422 callgsubr
            53 vlineto
            63 -36 36 -49 7 vhcurveto
            4 vlineto
            27 8 8 28 25 vvcurveto
            return
          </CharString>
          <CharString index="396">
            505 callgsubr
            -3 184 callgsubr
            11 hhcurveto
            return
          </CharString>
          <CharString index="397">
            461 callsubr
            -9 hvcurveto
            return
          </CharString>
          <CharString index="398">
            -66 callsubr
            -77 return
          </CharString>
          <CharString index="399">
            hlineto
            -29 -13 7 33 29 13 11 32 hvcurveto
            208 4 callgsubr
            77 -104 callgsubr
            return
          </CharString>
          <CharString index="400">
            14 438 callsubr
            return
          </CharString>
          <CharString index="401">
            21 -166 rmoveto
            104 62 59 105 hvcurveto
            491 -48 callgsubr
            -468 vlineto
            -60 -18 -17 -60 vhcurveto
            -28 hlineto
            -15 -6 -7 -14 hvcurveto
            -68 469 callgsubr
            return
          </CharString>
          <CharString index="402">
            -61 -110 hvcurveto
            return
          </CharString>
          <CharString index="403">
            hhcurveto
            -18 174 callsubr
            92 11 callsubr
            return
          </CharString>
          <CharString index="404">
            156 callsubr
            -154 hlineto
            return
          </CharString>
          <CharString index="405">
            -117 vlineto
            -38 14 -25 25 -15 vhcurveto
            return
          </CharString>
          <CharString index="406">
            hlineto
            359 callsubr
            return
          </CharString>
          <CharString index="407">
            vlineto
            48 22 23 44 vhcurveto
            return
          </CharString>
          <CharString index="408">
            -3 callsubr
            -16 return
          </CharString>
          <CharString index="409">
            hhcurveto
            187 callsubr
            return
          </CharString>
          <CharString index="410">
            hlineto
            22 12 5 22 hvcurveto
            43 vlineto
            16 -9 12 -22 vhcurveto
            return
          </CharString>
          <CharString index="411">
            14 7 5 16 354 callgsubr
            return
          </CharString>
          <CharString index="412">
            27 callgsubr
            -64 hlineto
            -16 -8 -7 -16 hvcurveto
            return
          </CharString>
          <CharString index="413">
            hlineto
            116 callsubr
            -8 46 callgsubr
            return
          </CharString>
          <CharString index="414">
            1 4 1 7 rrcurveto
            8 1 4 4 8 hhcurveto
            return
          </CharString>
          <CharString index="415">
            2 361 callsubr
          </CharString>
          <CharString index="416">
            -6 623 20 callgsubr
            return
          </CharString>
          <CharString index="417">
            455 callgsubr
            -8 hvcurveto
            endchar
          </CharString>
          <CharString index="418">
            hlineto
            13 347 callsubr
            return
          </CharString>
          <CharString index="419">
            -7 -14 hvcurveto
            -68 vlineto
            -14 return
          </CharString>
          <CharString index="420">
            -239 hlineto
            -125 -56 -68 -112 hvcurveto
            273 callsubr
            vhcurveto
            239 hlineto
            49 16 -19 -56 hvcurveto
            -75 vlineto
            return
          </CharString>
          <CharString index="421">
            -68 rlineto
            -27 -18 10 -28 38 hhcurveto
            32 65 14 32 17 -5 3 -16 hvcurveto
            -42 hlineto
            38 57 rlineto
            return
          </CharString>
          <CharString index="422">
            8 7 17 hvcurveto
            return
          </CharString>
          <CharString index="423">
            hhcurveto
            23 callsubr
            -96 -57 -49 -83 -14 hvcurveto
            -136 3 callgsubr
            return
          </CharString>
          <CharString index="424">
            -59 callsubr
            56 517 callgsubr
            return
          </CharString>
          <CharString index="425">
            rrcurveto
            -9 8 11 -6 15 hhcurveto
            49 hlineto
            15 7 10 13 7 -2 7 -2 9 hvcurveto
            -2 9 return
          </CharString>
          <CharString index="426">
            293 -48 callsubr
            return
          </CharString>
          <CharString index="427">
            -13 283 callgsubr
            13 hvcurveto
            return
          </CharString>
          <CharString index="428">
            -5 216 callgsubr
            return
          </CharString>
          <CharString index="429">
            98 callsubr
            -22 hlineto
            return
          </CharString>
          <CharString index="430">
            -109 -54 406 callgsubr
            return
          </CharString>
          <CharString index="431">
            -116 -55 -65 -103 hvcurveto
            return
          </CharString>
          <CharString index="432">
            -43 -15 17 42 hvcurveto
            return
          </CharString>
          <CharString index="433">
            -5 -7 -14 hvcurveto
            return
          </CharString>
          <CharString index="434">
            403 callsubr
            -62 -16 callsubr
            return
          </CharString>
          <CharString index="435">
            12 vhcurveto
            83 hlineto
            13 8 379 callgsubr
            return
          </CharString>
          <CharString index="436">
            10 -6 -6 2 -7 hhcurveto
            -7 -5 -4 -3 -5 hvcurveto
            -55 -34 -17 -14 -37 -1 rrcurveto
            -13 hlineto
            -39 -19 11 45 37 6 22 39 hvcurveto
            37 hlineto
            17 8 8 17 hvcurveto
            return
          </CharString>
          <CharString index="437">
            vlineto
            -59 callsubr
            542 -105 callgsubr
            endchar
          </CharString>
          <CharString index="438">
            -16 32 vhcurveto
            58 hlineto
            31 19 16 32 hvcurveto
            68 vlineto
            31 -19 15 -31 vhcurveto
            -58 hlineto
            -32 return
          </CharString>
          <CharString index="439">
            -89 callsubr
            55 -86 callsubr
            -11 hlineto
            265 callgsubr
            return
          </CharString>
          <CharString index="440">
            98 callgsubr
            4 -6 13 hhcurveto
            return
          </CharString>
          <CharString index="441">
            vlineto
            217 callgsubr
            94 405 callgsubr
            -8 hvcurveto
            -102 return
          </CharString>
          <CharString index="442">
            -4 hlineto
            -28 -12 -10 -31 return
          </CharString>
          <CharString index="443">
            -13 18 51 hvcurveto
            return
          </CharString>
          <CharString index="444">
            hlineto
            59 callgsubr
            return
          </CharString>
          <CharString index="445">
            836 64 callsubr
            5 481 callgsubr
            -6 9 -13 hhcurveto
            return
          </CharString>
          <CharString index="446">
            rmoveto
            -12 -10 -5 -14 -8 hvcurveto
            -44 -89 rlineto
            -15 -7 4 481 callgsubr
            -5 9 -14 hhcurveto
            endchar
          </CharString>
          <CharString index="447">
            34 199 callsubr
            return
          </CharString>
          <CharString index="448">
            hlineto
            9 -1 4 -3 -9 vvcurveto
            return
          </CharString>
          <CharString index="449">
            104 61 58 105 hvcurveto
            return
          </CharString>
          <CharString index="450">
            -14 439 callgsubr
            return
          </CharString>
          <CharString index="451">
            hlineto
            -16 -8 -6 return
          </CharString>
          <CharString index="452">
            0 -32 -16 -44 -41 vhcurveto
            -45 -41 -43 callsubr
            94 hlineto
            13 9 379 callgsubr
            13 12 33 34 37 39 return
          </CharString>
          <CharString index="453">
            96 rlineto
            11 9 return
          </CharString>
          <CharString index="454">
            6 7 14 hvcurveto
            return
          </CharString>
          <CharString index="455">
            -42 -13 12 31 hvcurveto
            11 vlineto
            25 16 13 20 vhcurveto
            14 336 callgsubr
            16 hvcurveto
            53 -86 callsubr
            -14 219 callgsubr
            return
          </CharString>
          <CharString index="456">
            hlineto
            18 5 7 17 hvcurveto
            54 357 callsubr
            return
          </CharString>
          <CharString index="457">
            rmoveto
            -14 283 callgsubr
            14 hvcurveto
            return
          </CharString>
          <CharString index="458">
            299 callsubr
            -52 vlineto
            -15 4 -5 17 vhcurveto
            return
          </CharString>
          <CharString index="459">
            -104 callgsubr
            56 267 callgsubr
            return
          </CharString>
          <CharString index="460">
            vlineto
            14 -7 5 399 callgsubr
            return
          </CharString>
          <CharString index="461">
            15 5 219 callsubr
            -5 return
          </CharString>
          <CharString index="462">
            323 callgsubr
            70 hlineto
            return
          </CharString>
          <CharString index="463">
            vlineto
            -110 134 callgsubr
            return
          </CharString>
          <CharString index="464">
            vlineto
            17 -5 7 -18 vhcurveto
            return
          </CharString>
          <CharString index="465">
            13 vhcurveto
            80 hlineto
            13 return
          </CharString>
          <CharString index="466">
            -16 326 callsubr
            return
          </CharString>
          <CharString index="467">
            -4 418 callsubr
            -11 421 callsubr
            -11 492 callsubr
            -4 177 callgsubr
            return
          </CharString>
          <CharString index="468">
            412 callsubr
            endchar
          </CharString>
          <CharString index="469">
            509 callgsubr
            154 hlineto
            20 11 -8 -30 hvcurveto
            -11 vlineto
            -28 -11 -9 -20 vhcurveto
            -122 hlineto
            return
          </CharString>
          <CharString index="470">
            729 375 callgsubr
            88 311 callsubr
            95 vlineto
            14 -7 5 -12 vhcurveto
            -88 252 callsubr
            endchar
          </CharString>
          <CharString index="471">
            vhcurveto
            4 vlineto
            25 15 14 25 38 vvcurveto
            117 vlineto
            8 3 6 7 vhcurveto
            return
          </CharString>
          <CharString index="472">
            hlineto
            -18 callgsubr
            -372 -4 vlineto
            return
          </CharString>
          <CharString index="473">
            452 rmoveto
            359 callgsubr
            -58 hlineto
            return
          </CharString>
          <CharString index="474">
            538 callsubr
            68 rlineto
            return
          </CharString>
          <CharString index="475">
            459 callsubr
            -13 hhcurveto
            return
          </CharString>
          <CharString index="476">
            -55 420 callsubr
            return
          </CharString>
          <CharString index="477">
            rmoveto
            7 -5 -7 4 return
          </CharString>
          <CharString index="478" raw="1">
            155f1d0b   
          </CharString>
          <CharString index="479">
            rmoveto
            499 callgsubr
            45 417 callsubr
            -197 299 callsubr
            -45 467 callsubr
            endchar
          </CharString>
          <CharString index="480">
            123 callsubr
            70 -89 callsubr
            return
          </CharString>
          <CharString index="481">
            hlineto
            225 callgsubr
            return
          </CharString>
          <CharString index="482">
            hlineto
            -49 -24 24 48 hvcurveto
            return
          </CharString>
          <CharString index="483">
            -8 411 callgsubr
            return
          </CharString>
          <CharString index="484">
            vlineto
            42 15 16 43 vhcurveto
            return
          </CharString>
          <CharString index="485">
            vlineto
            -42 -16 -16 -43 vhcurveto
            return
          </CharString>
          <CharString index="486">
            56 vlineto
            16 -8 return
          </CharString>
          <CharString index="487">
            448 callgsubr
            661 vlineto
            172 callsubr
            return
          </CharString>
          <CharString index="488">
            368 512 callgsubr
            -95 vlineto
            -13 235 callsubr
            return
          </CharString>
          <CharString index="489">
            -247 409 callgsubr
            return
          </CharString>
          <CharString index="490">
            305 callgsubr
            -43 -43 -24 return
          </CharString>
          <CharString index="491">
            1 8 1 7 vhcurveto
            return
          </CharString>
          <CharString index="492" raw="1">
            9b1fc307 0b  
          </CharString>
          <CharString index="493">
            4 514 callgsubr
            9 vhcurveto
            39 hlineto
            8 2 389 callsubr
            -55 -24 -17 -7 -25 return
          </CharString>
          <CharString index="494">
            -35 callsubr
            -37 446 callsubr
            return
          </CharString>
          <CharString index="495">
            5 -12 174 callgsubr
            endchar
          </CharString>
          <CharString index="496">
            4 9 hvcurveto
            37 vlineto
            40 -16 37 return
          </CharString>
          <CharString index="497">
            14 -7 5 -12 vhcurveto
            -89 252 callsubr
            -120 vlineto
            -14 235 callsubr
            return
          </CharString>
          <CharString index="498">
            -2 callgsubr
            -44 hlineto
            -18 callgsubr
            -230 -21 callsubr
            44 170 callgsubr
            return
          </CharString>
          <CharString index="499">
            rmoveto
            29 9 -11 -28 hvcurveto
            -87 vlineto
            -28 -9 -10 -29 vhcurveto
            -23 hlineto
            -30 -8 10 28 hvcurveto
            87 vlineto
            28 8 11 30 vhcurveto
            return
          </CharString>
          <CharString index="500">
            465 callgsubr
            -58 hlineto
            -10 501 callsubr
            endchar
          </CharString>
          <CharString index="501">
            623 rmoveto
            -72 callgsubr
            return
          </CharString>
          <CharString index="502">
            vlineto
            -24 -14 -12 -23 -2 vhcurveto
            -4 hlineto
            -23 2 -14 12 24 vvcurveto
            return
          </CharString>
          <CharString index="503">
            -13 -10 -4 -15 185 callsubr
            return
          </CharString>
          <CharString index="504">
            376 callsubr
            -7 4 -6 13 hhcurveto
            return
          </CharString>
          <CharString index="505">
            19 callgsubr
            371 4 vlineto
            return
          </CharString>
          <CharString index="506">
            189 432 callgsubr
            return
          </CharString>
          <CharString index="507">
            69 38 callgsubr
            return
          </CharString>
          <CharString index="508">
            rmoveto
            242 callgsubr
            return
          </CharString>
          <CharString index="509">
            rmoveto
            343 callsubr
            return
          </CharString>
          <CharString index="510">
            hlineto
            24 13 -11 -21 hvcurveto
            return
          </CharString>
          <CharString index="511">
            15 478 callgsubr
            return
          </CharString>
          <CharString index="512">
            -19 callsubr
            endchar
          </CharString>
          <CharString index="513">
            -16 16 49 hvcurveto
            return
          </CharString>
          <CharString index="514">
            -91 callsubr
            368 callgsubr
            -29 430 callsubr
            -68 vlineto
            return
          </CharString>
          <CharString index="515">
            -98 callgsubr
            513 callsubr
            return
          </CharString>
          <CharString index="516">
            497 callsubr
            133 hlineto
            110 45 79 75 hvcurveto
            return
          </CharString>
          <CharString index="517">
            412 callgsubr
            endchar
          </CharString>
          <CharString index="518">
            -42 460 callgsubr
            return
          </CharString>
          <CharString index="519">
            6 7 -4 hvcurveto
            return
          </CharString>
          <CharString index="520">
            -4 hlineto
            -17 -9 -7 -14 -19 vvcurveto
            -41 4 callsubr
            return
          </CharString>
          <CharString index="521">
            6 -3 8 hhcurveto
            60 hlineto
            9 308 callsubr
          </CharString>
          <CharString index="522" raw="1">
            971ee1f0 1d0b  
          </CharString>
          <CharString index="523">
            8 callsubr
            endchar
          </CharString>
          <CharString index="524">
            vlineto
            384 callgsubr
            return
          </CharString>
          <CharString index="525">
            -4 -9 hvcurveto
            -9 vlineto
            -31 return
          </CharString>
          <CharString index="526">
            vlineto
            14 461 callgsubr
            return
          </CharString>
          <CharString index="527">
            hlineto
            -42 -13 13 45 hvcurveto
            return
          </CharString>
          <CharString index="528">
            -12 477 callgsubr
            return
          </CharString>
          <CharString index="529">
            hlineto
            40 13 -23 -48 hvcurveto
            return
          </CharString>
          <CharString index="530">
            hlineto
            82 -12 -51 43 -73 hhcurveto
            480 callsubr
            return
          </CharString>
          <CharString index="531">
            20 -26 308 callgsubr
            return
          </CharString>
          <CharString index="532">
            hlineto
            373 callsubr
            return
          </CharString>
          <CharString index="533">
            hlineto
            19 7 -5 -23 hvcurveto
            -30 vlineto
            -21 -7 -6 -20 vhcurveto
            return
          </CharString>
          <CharString index="534">
            27 callgsubr
            -69 42 callgsubr
            return
          </CharString>
          <CharString index="535">
            84 callsubr
            7 hlineto
            43 21 -23 -40 hvcurveto
            return
          </CharString>
          <CharString index="536">
            hlineto
            449 callgsubr
            -58 467 callgsubr
            return
          </CharString>
          <CharString index="537">
            505 callsubr
            -62 -108 hvcurveto
            return
          </CharString>
          <CharString index="538">
            hhcurveto
            59 hlineto
            8 6 3 9 return
          </CharString>
          <CharString index="539">
            -47 46 callsubr
            return
          </CharString>
          <CharString index="540">
            -9 -11 -1 -12 hhcurveto
            return
          </CharString>
          <CharString index="541">
            hlineto
            -15 -6 -7 -14 return
          </CharString>
          <CharString index="542">
            309 472 rmoveto
            -39 -9 -23 -39 -39 -9 23 39 39 9 23 39 39 9 -23 -39 vhcurveto
            return
          </CharString>
          <CharString index="543">
            hlineto
            43 36 17 22 13 hvcurveto
            485 callsubr
            return
          </CharString>
          <CharString index="544">
            -6 13 hhcurveto
            64 hlineto
            11 388 callgsubr
          </CharString>
          <CharString index="545">
            hvcurveto
            68 vlineto
            14 return
          </CharString>
          <CharString index="546">
            -98 callgsubr
            -237 507 callsubr
            return
          </CharString>
          <CharString index="547">
            9 322 callgsubr
            -5 9 return
          </CharString>
          <CharString index="548">
            43 callgsubr
            -70 9 callgsubr
            return
          </CharString>
          <CharString index="549">
            hvcurveto
            -33 -66 -32 465 callgsubr
            return
          </CharString>
          <CharString index="550">
            -2 2 -8 vhcurveto
            -40 hlineto
            -8 -2 -2 return
          </CharString>
          <CharString index="551">
            hlineto
            -9 -5 418 callsubr
            return
          </CharString>
          <CharString index="552">
            hlineto
            434 callgsubr
            return
          </CharString>
          <CharString index="553">
            hlineto
            -49 -23 17 48 hvcurveto
            return
          </CharString>
          <CharString index="554">
            hlineto
            50 19 -17 -44 hvcurveto
            return
          </CharString>
          <CharString index="555">
            -37 -28 -19 -45 -60 vvcurveto
            return
          </CharString>
          <CharString index="556">
            -15 326 callsubr
            return
          </CharString>
          <CharString index="557">
            -12 callgsubr
            233 305 callsubr
            return
          </CharString>
          <CharString index="558">
            -7 13 vhcurveto
            88 hlineto
            13 7 527 callsubr
            -8 5 -12 vhcurveto
            -88 hlineto
            -13 return
          </CharString>
          <CharString index="559">
            300 callsubr
            50 -91 callgsubr
            return
          </CharString>
          <CharString index="560">
            434 callgsubr
            -61 vlineto
            321 callgsubr
            return
          </CharString>
          <CharString index="561">
            -15 -7 -7 -15 hvcurveto
            -72 vlineto
            -15 7 -8 15 vhcurveto
            81 hlineto
            15 7 8 15 hvcurveto
            return
          </CharString>
          <CharString index="562">
            13 callsubr
            -50 522 callgsubr
            -50 vlineto
            -15 7 -8 15 vhcurveto
            return
          </CharString>
          <CharString index="563">
            457 callsubr
            -90 hlineto
            -87 -54 -33 -94 -58 21 -25 30 -16 hvcurveto
            return
          </CharString>
          <CharString index="564">
            -28 417 callgsubr
            return
          </CharString>
          <CharString index="565">
            -43 -15 16 42 hvcurveto
            return
          </CharString>
          <CharString index="566">
            rmoveto
            14 -7 -10 5 return
          </CharString>
          <CharString index="567">
            -28 -27 -10 hvcurveto
            return
          </CharString>
          <CharString index="568">
            hlineto
            -9 -5 -4 return
          </CharString>
          <CharString index="569">
            482 callsubr
            -13 hlineto
            return
          </CharString>
          <CharString index="570">
            221 478 callsubr
            return
          </CharString>
          <CharString index="571">
            623 401 callsubr
            return
          </CharString>
          <CharString index="572">
            hvcurveto
            56 -86 callsubr
            return
          </CharString>
          <CharString index="573">
            vlineto
            105 -61 57 -104 vhcurveto
            return
          </CharString>
          <CharString index="574">
            vlineto
            343 callsubr
            return
          </CharString>
          <CharString index="575">
            rmoveto
            404 callsubr
            return
          </CharString>
          <CharString index="576">
            vlineto
            9 4 3 8 vhcurveto
            return
          </CharString>
          <CharString index="577">
            vlineto
            28 9 15 31 31 9 -16 -28 vhcurveto
            -90 229 callsubr
            return
          </CharString>
          <CharString index="578">
            -16 -8 -7 -16 hvcurveto
            -58 vlineto
            -99 callsubr
            275 hlineto
            8 4 return
          </CharString>
          <CharString index="579">
            vlineto
            -114 57 -62 111 vhcurveto
            9 hlineto
            return
          </CharString>
          <CharString index="580">
            60 535 callgsubr
            -60 58 return
          </CharString>
          <CharString index="581">
            475 rmoveto
            230 callsubr
            -97 hlineto
            return
          </CharString>
          <CharString index="582">
            14 8 5 16 hvcurveto
            return
          </CharString>
          <CharString index="583">
            hlineto
            550 callgsubr
            return
          </CharString>
          <CharString index="584">
            hlineto
            10 9 5 8 return
          </CharString>
          <CharString index="585">
            416 callgsubr
            8 384 callsubr
            return
          </CharString>
          <CharString index="586">
            110 rmoveto
            325 callsubr
            305 vlineto
            217 callgsubr
            return
          </CharString>
          <CharString index="587">
            -7 515 callgsubr
            82 11 callsubr
            return
          </CharString>
          <CharString index="588">
            446 callsubr
            35 230 callgsubr
            114 hlineto
            return
          </CharString>
          <CharString index="589">
            vlineto
            -12 callgsubr
            108 114 callsubr
            return
          </CharString>
          <CharString index="590">
            495 callgsubr
            endchar
          </CharString>
          <CharString index="591">
            301 callgsubr
            endchar
          </CharString>
          <CharString index="592">
            4 -86 425 callsubr
            return
          </CharString>
          <CharString index="593">
            144 rmoveto
            237 callgsubr
            return
          </CharString>
          <CharString index="594">
            228 -59 callgsubr
            return
          </CharString>
          <CharString index="595">
            118 rmoveto
            -25 callsubr
            return
          </CharString>
          <CharString index="596">
            -91 callsubr
            -63 vlineto
            return
          </CharString>
          <CharString index="597">
            21 496 callgsubr
            return
          </CharString>
          <CharString index="598">
            hlineto
            -8 -4 3 9 hvcurveto
            return
          </CharString>
          <CharString index="599">
            11 32 hvcurveto
            9 vlineto
            9 return
          </CharString>
          <CharString index="600">
            vlineto
            -15 7 -7 14 vhcurveto
            return
          </CharString>
          <CharString index="601">
            vlineto
            -14 5 -8 15 vhcurveto
            return
          </CharString>
          <CharString index="602">
            hlineto
            242 callgsubr
            return
          </CharString>
          <CharString index="603">
            hmoveto
            433 callgsubr
            return
          </CharString>
          <CharString index="604">
            -97 67 -51 102 vhcurveto
            return
          </CharString>
          <CharString index="605">
            58 -105 vhcurveto
            -32 hlineto
            return
          </CharString>
          <CharString index="606">
            4 6 5 vhcurveto
            return
          </CharString>
          <CharString index="607">
            -91 callsubr
            533 callgsubr
            return
          </CharString>
          <CharString index="608">
            -3 -6 -7 4 hvcurveto
            63 -105 rlineto
            -7 5 6 -4 11 hhcurveto
            return
          </CharString>
          <CharString index="609">
            110 callgsubr
            105 11 callsubr
            return
          </CharString>
          <CharString index="610">
            39 324 callgsubr
            -5 4 -9 vhcurveto
            -50 hlineto
            -9 return
          </CharString>
          <CharString index="611">
            vlineto
            15 -7 5 return
          </CharString>
          <CharString index="612">
            hlineto
            -109 -62 return
          </CharString>
          <CharString index="613">
            hlineto
            238 callsubr
            return
          </CharString>
          <CharString index="614">
            vlineto
            441 callgsubr
            return
          </CharString>
          <CharString index="615">
            hlineto
            -54 -19 17 35 hvcurveto
            37 vlineto
            33 13 19 43 vhcurveto
            return
          </CharString>
          <CharString index="616">
            vlineto
            -19 9 -10 19 vhcurveto
            68 hlineto
            19 9 10 19 hvcurveto
            return
          </CharString>
          <CharString index="617">
            hlineto
            -24 -15 10 22 hvcurveto
            9 vlineto
            20 13 15 22 vhcurveto
            return
          </CharString>
          <CharString index="618">
            rmoveto
            449 callgsubr
            -58 467 callgsubr
            return
          </CharString>
          <CharString index="619">
            hlineto
            250 -196 rmoveto
            207 196 -207 hlineto
            return
          </CharString>
          <CharString index="620">
            -482 vlineto
            -99 callsubr
            return
          </CharString>
          <CharString index="621">
            -5 -14 376 callsubr
            return
          </CharString>
          <CharString index="622">
            418 callgsubr
            -55 hlineto
            return
          </CharString>
          <CharString index="623">
            vhcurveto
            44 -98 callgsubr
            return
          </CharString>
          <CharString index="624">
            26 -16 -30 20 -55 hhcurveto
            -15 hlineto
            return
          </CharString>
          <CharString index="625">
            15 5 8 14 hvcurveto
            42 vlineto
            15 240 callsubr
            return
          </CharString>
          <CharString index="626">
            222 416 callgsubr
            return
          </CharString>
          <CharString index="627">
            -16 7 -5 14 vhcurveto
            142 callsubr
            return
          </CharString>
          <CharString index="628">
            9 hhcurveto
            59 hlineto
            10 308 callsubr
          </CharString>
          <CharString index="629">
            rmoveto
            267 callsubr
            return
          </CharString>
          <CharString index="630">
            rmoveto
            -48 -24 -24 -49 vhcurveto
            return
          </CharString>
          <CharString index="631">
            vlineto
            42 16 16 42 vhcurveto
            return
          </CharString>
          <CharString index="632">
            hlineto
            433 callgsubr
            return
          </CharString>
          <CharString index="633">
            hlineto
            -13 -7 -6 -14 hvcurveto
            return
          </CharString>
          <CharString index="634">
            7 13 hvcurveto
            96 vlineto
            14 return
          </CharString>
          <CharString index="635">
            hlineto
            -43 -16 17 return
          </CharString>
          <CharString index="636">
            hlineto
            14 7 7 return
          </CharString>
          <CharString index="637">
            405 297 callsubr
            return
          </CharString>
          <CharString index="638">
            vlineto
            -15 8 -5 9 8 7 4 6 4 vhcurveto
            return
          </CharString>
          <CharString index="639">
            157 247 389 rmoveto
            return
          </CharString>
          <CharString index="640">
            8 vhcurveto
            18 28 30 48 hhcurveto
            return
          </CharString>
          <CharString index="641">
            -16 239 callgsubr
            return
          </CharString>
          <CharString index="642">
            vlineto
            191 callgsubr
            return
          </CharString>
          <CharString index="643">
            13 -7 6 -13 vhcurveto
            return
          </CharString>
          <CharString index="644">
            -17 -7 -7 -16 hvcurveto
            return
          </CharString>
          <CharString index="645">
            499 callsubr
            53 return
          </CharString>
          <CharString index="646">
            623 rmoveto
            -8 return
          </CharString>
          <CharString index="647">
            62 60 104 hvcurveto
            return
          </CharString>
          <CharString index="648">
            9 5 3 9 return
          </CharString>
          <CharString index="649">
            -3 -9 -4 hvcurveto
            return
          </CharString>
          <CharString index="650">
            25 26 -18 19 -26 -25 -19 -19 -26 vhcurveto
            return
          </CharString>
          <CharString index="651">
            hlineto
            -110 -59 -64 -106 -1 hvcurveto
            -31 vlineto
            return
          </CharString>
          <CharString index="652">
            160 callsubr
            -7 5 -13 vhcurveto
            return
          </CharString>
          <CharString index="653">
            hlineto
            355 callsubr
            return
          </CharString>
          <CharString index="654">
            hhcurveto
            -7 515 callgsubr
            return
          </CharString>
          <CharString index="655">
            -4 -3 -8 vhcurveto
            return
          </CharString>
          <CharString index="656">
            vlineto
            105 -52 58 return
          </CharString>
          <CharString index="657">
            10 -5 10 hhcurveto
            return
          </CharString>
        <CharString name=".notdef">
          118 120 hmoveto
          360 582 -360 hlineto
          50 -46 rmoveto
          260 -490 -260 hlineto
          endchar
        </CharString>
        <CharString name="A">
          75 -61 callgsubr
          endchar
        </CharString>
        <CharString name="AE">
          103 callgsubr
          endchar
        </CharString>
        <CharString name="AEacute">
          103 callgsubr
          467 331 callgsubr
        </CharString>
        <CharString name="Aacute">
          74 -61 callgsubr
          271 331 callgsubr
        </CharString>
        <CharString name="Abreve">
          74 -61 callgsubr
          127 823 rmoveto
          -11 vlineto
          273 callgsubr
          endchar
        </CharString>
        <CharString name="Acircumflex">
          74 -61 callgsubr
          297 825 181 callsubr
          60 hlineto
          9 308 callsubr
        </CharString>
        <CharString name="Adieresis">
          74 -61 callgsubr
          278 728 10 callgsubr
        </CharString>
        <CharString name="Agrave">
          74 -61 callgsubr
          238 489 callgsubr
          -98 hlineto
          -14 179 callsubr
        </CharString>
        <CharString name="Amacron">
          74 -61 callgsubr
          341 732 186 callsubr
        </CharString>
        <CharString name="Aogonek">
          74 205 233 rmoveto
          72 289 rlineto
          4 hlineto
          72 -289 rlineto
          22 389 rmoveto
          16 -4 -10 5 -16 hhcurveto
          -133 hlineto
          -16 -9 -5 -16 -5 hvcurveto
          -158 -601 rlineto
          -15 -4 2 -6 14 hhcurveto
          96 hlineto
          14 4 5 16 3 hvcurveto
          28 110 rlineto
          195 hlineto
          28 -110 rlineto
          -2 vlineto
          -53 -87 rlineto
          -27 -17 10 -28 38 hhcurveto
          32 65 14 32 17 -5 3 -17 hvcurveto
          -41 hlineto
          37 57 rlineto
          68 hlineto
          14 2 6 15 -4 hvcurveto
          endchar
        </CharString>
        <CharString name="Aring">
          74 -61 callgsubr
          233 750 rmoveto
          -17 -6 6 19 hvcurveto
          26 vlineto
          20 7 6 17 249 callgsubr
          -35 -19 -19 -33 hvcurveto
          -64 vlineto
          -35 19 -19 35 vhcurveto
          endchar
        </CharString>
        <CharString name="Atilde">
          74 -61 callgsubr
          258 738 rmoveto
          22 18 3 5 8 hhcurveto
          12 4 372 callgsubr
          -20 445 callgsubr
          12 vlineto
          9 -3 2 -8 vhcurveto
          -39 hlineto
          -9 -2 -2 -9 hvcurveto
          -39 vlineto
          539 callgsubr
          18 6 30 22 vhcurveto
          endchar
        </CharString>
        <CharString name="B">
          73 65 490 callsubr
          250 hlineto
          104 60 57 105 hvcurveto
          60 vlineto
          68 -38 33 -50 7 vhcurveto
          50 16 29 38 56 vvcurveto
          41 vlineto
          105 -60 57 -105 vhcurveto
          -240 516 callgsubr
          -240 rmoveto
          -7 248 callsubr
          133 vlineto
          8 4 3 7 vhcurveto
          103 hlineto
          42 19 -16 -42 hvcurveto
          -39 vlineto
          -41 -19 -17 -43 vhcurveto
          -102 -276 rmoveto
          -7 248 callsubr
          151 vlineto
          8 4 3 7 vhcurveto
          110 hlineto
          45 19 -16 -41 hvcurveto
          -58 vlineto
          -42 -19 -16 -43 vhcurveto
          endchar
        </CharString>
        <CharString name="C">
          56 329 hmoveto
          22 callgsubr
        </CharString>
        <CharString name="CR">
          -482 endchar
        </CharString>
        <CharString name="Cacute">
          56 290 338 callsubr
          -60 -836 rmoveto
          22 callgsubr
        </CharString>
        <CharString name="Ccaron">
          56 310 707 rmoveto
          228 callsubr
          -33 66 rlineto
          9 -3 -6 3 -8 289 callsubr
          83 -707 rmoveto
          22 callgsubr
        </CharString>
        <CharString name="Ccedilla">
          56 472 411 rmoveto
          15 7 7 15 hvcurveto
          47 252 callgsubr
          -109 131 callsubr
          -317 7 callgsubr
          32 hlineto
          -40 -47 rlineto
          -21 -19 13 -34 24 hhcurveto
          26 hlineto
          36 9 -4 -20 hvcurveto
          -3 vlineto
          -17 -9 -5 -36 vhcurveto
          -34 hlineto
          -14 -4 -4 -16 hvcurveto
          -19 vlineto
          -14 3 -5 15 vhcurveto
          46 hlineto
          54 40 21 50 hvcurveto
          18 vlineto
          55 -30 20 -44 vhcurveto
          4 vlineto
          40 41 rlineto
          1 hlineto
          342 callsubr
          47 vlineto
          15 -7 7 -15 vhcurveto
          -84 hlineto
          -14 -7 -7 -15 hvcurveto
          -41 240 callgsubr
          -68 hlineto
          -42 -16 17 42 hvcurveto
          305 vlineto
          42 16 17 42 vhcurveto
          68 hlineto
          43 16 -17 -42 hvcurveto
          -41 493 callsubr
          endchar
        </CharString>
        <CharString name="Cdotaccent">
          56 211 729 280 callgsubr
          118 -823 rmoveto
          22 callgsubr
        </CharString>
        <CharString name="D">
          233 callgsubr
          endchar
        </CharString>
        <CharString name="Dcaron">
          233 callgsubr
          -69 597 rmoveto
          65 hlineto
          10 7 4 7 5 hvcurveto
          62 105 rlineto
          7 4 -1 6 -10 505 callgsubr
          -5 -3 -9 -4 hvcurveto
          -33 -66 -32 393 callsubr
        </CharString>
        <CharString name="Dcroat">
          84 347 410 callgsubr
          -247 hlineto
          -18 callgsubr
          -208 vlineto
          -9 -3 -3 -8 vhcurveto
          -26 351 callsubr
          26 hlineto
          8 3 -3 -8 hvcurveto
          -277 482 callgsubr
          177 vlineto
          8 4 3 7 vhcurveto
          76 429 callgsubr
          -76 hlineto
          -7 -4 3 9 hvcurveto
          108 414 callgsubr
        </CharString>
        <CharString name="E">
          -3 -70 callsubr
          endchar
        </CharString>
        <CharString name="Eacute">
          -3 -70 callsubr
          182 836 339 callsubr
        </CharString>
        <CharString name="Ebreve">
          -3 -70 callsubr
          47 823 129 callsubr
        </CharString>
        <CharString name="Ecaron">
          -3 -70 callsubr
          137 707 91 callsubr
          -4 -5 3 -9 hhcurveto
          -58 173 callsubr
        </CharString>
        <CharString name="Ecircumflex">
          -3 -70 callsubr
          217 825 1 callsubr
          10 1 361 callsubr
        </CharString>
        <CharString name="Edieresis">
          -3 -70 callsubr
          199 728 254 callgsubr
        </CharString>
        <CharString name="Edotaccent">
          0 -70 callsubr
          100 363 callsubr
        </CharString>
        <CharString name="Egrave">
          -3 -70 callsubr
          159 489 callgsubr
          -98 hlineto
          -14 179 callsubr
        </CharString>
        <CharString name="Emacron">
          -3 -70 callsubr
          262 732 186 callsubr
        </CharString>
        <CharString name="Eng">
          107 362 -172 rmoveto
          104 540 callsubr
          630 -48 callgsubr
          -372 -4 vlineto
          -199 379 rlineto
          2 -1 -6 12 -20 hhcurveto
          -77 63 callsubr
          371 4 vlineto
          19 -32 158 -308 19 -32 rrcurveto
          -5 vlineto
          -60 -17 -17 -60 vhcurveto
          -28 hlineto
          -15 209 callsubr
          15 vhcurveto
          endchar
        </CharString>
        <CharString name="Eogonek">
          -3 413 533 rmoveto
          25 callgsubr
          -327 58 callgsubr
          227 hlineto
          -42 314 callsubr
          40 hlineto
          -52 callgsubr
          endchar
        </CharString>
        <CharString name="Eth">
          84 347 410 callgsubr
          -247 hlineto
          -18 callgsubr
          -242 vlineto
          -8 -3 -3 -8 vhcurveto
          -26 299 callsubr
          -52 vlineto
          -15 4 -6 17 vhcurveto
          26 hlineto
          8 3 -3 -8 hvcurveto
          -243 482 callgsubr
          143 vlineto
          8 4 3 7 vhcurveto
          76 hlineto
          16 5 6 15 hvcurveto
          52 417 callsubr
          -76 hlineto
          -7 248 callsubr
          142 414 callgsubr
        </CharString>
        <CharString name="Euro">
          65 320 hmoveto
          104 61 57 105 hvcurveto
          20 468 callgsubr
          -85 hlineto
          -14 -7 -6 -15 hvcurveto
          -18 378 callsubr
          -23 hlineto
          -43 -19 16 42 hvcurveto
          46 92 vlineto
          18 5 -45 callsubr
          38 357 callsubr
          -92 44 92 hlineto
          18 5 7 16 hvcurveto
          38 357 callsubr
          -92 54 hlineto
          42 19 16 43 vhcurveto
          23 hlineto
          43 16 -16 -42 hvcurveto
          -18 vlineto
          -15 7 -6 14 vhcurveto
          85 494 callgsubr
          20 466 callsubr
          -65 hlineto
          -104 -61 -57 -105 hvcurveto
          -56 -44 vlineto
          459 callgsubr
          -38 vlineto
          -16 5 -7 18 vhcurveto
          44 -44 -44 hlineto
          459 callgsubr
          -38 vlineto
          -16 5 -8 18 vhcurveto
          44 -48 hlineto
          -105 61 -57 104 vhcurveto
          endchar
        </CharString>
        <CharString name="F">
          -32 171 247 callgsubr
          213 82 callsubr
          171 hlineto
          15 6 7 15 hvcurveto
          67 417 callsubr
          -171 491 callsubr
          155 82 callsubr
          201 133 callsubr
          -319 58 callgsubr
          endchar
        </CharString>
        <CharString name="G">
          -24 callgsubr
          endchar
        </CharString>
        <CharString name="Gbreve">
          -24 callgsubr
          -63 823 rmoveto
          -11 vlineto
          -69 39 -36 59 95 callgsubr
          endchar
        </CharString>
        <CharString name="Gcircumflex">
          -24 callgsubr
          110 825 rmoveto
          7 -5 -7 63 callgsubr
          60 hlineto
          9 308 callsubr
        </CharString>
        <CharString name="Gdotaccent">
          -24 callgsubr
          -11 363 callsubr
        </CharString>
        <CharString name="H">
          94 171 247 callgsubr
          234 82 callsubr
          169 hlineto
          7 4 -3 -8 hvcurveto
          -234 vlineto
          -16 7 -5 14 vhcurveto
          85 259 callsubr
          -85 hlineto
          -14 -7 -5 -16 hvcurveto
          -235 vlineto
          -8 -4 -3 -7 vhcurveto
          -169 165 callsubr
          235 111 callsubr
          endchar
        </CharString>
        <CharString name="Hbar">
          128 226 359 rmoveto
          -7 -4 3 9 hvcurveto
          56 vlineto
          9 4 3 7 vhcurveto
          169 hlineto
          7 5 -4 -8 hvcurveto
          -56 vlineto
          -9 548 callsubr
          -202 -359 rmoveto
          475 callsubr
          217 vlineto
          8 3 3 8 vhcurveto
          169 hlineto
          8 3 -3 -8 hvcurveto
          -217 vlineto
          -16 8 -5 14 vhcurveto
          84 526 callgsubr
          406 469 callsubr
          34 490 callgsubr
          -5 7 -16 vhcurveto
          -34 491 callsubr
          78 vlineto
          16 -8 415 callgsubr
          -81 vlineto
          -5 -2 -4 -8 vhcurveto
          -170 hlineto
          -8 -3 3 9 hvcurveto
          78 vlineto
          16 -8 415 callgsubr
          -78 vlineto
          -9 -3 -3 -8 vhcurveto
          -34 351 callsubr
          34 hlineto
          8 3 -3 -9 hvcurveto
          -406 vlineto
          -16 8 -5 14 vhcurveto
          endchar
        </CharString>
        <CharString name="I">
          -215 197 622 37 callgsubr
          endchar
        </CharString>
        <CharString name="IJ">
          272 201 622 37 callgsubr
          384 622 130 callsubr
        </CharString>
        <CharString name="Iacute">
          -215 197 622 37 callgsubr
          -33 815 339 callsubr
        </CharString>
        <CharString name="Ibreve">
          -215 197 622 37 callgsubr
          -179 802 rmoveto
          -11 vlineto
          -69 38 -36 60 95 callgsubr
          endchar
        </CharString>
        <CharString name="Icircumflex">
          -217 197 622 37 callgsubr
          -10 804 370 callsubr
          -10 337 callgsubr
          8 hhcurveto
          60 hlineto
          10 1 361 callsubr
        </CharString>
        <CharString name="Idieresis">
          -216 197 622 37 callgsubr
          -28 707 254 callsubr
        </CharString>
        <CharString name="Idotaccent">
          -215 70 724 350 callsubr
          87 353 callsubr
          127 -188 37 callgsubr
          endchar
        </CharString>
        <CharString name="Igrave">
          -215 197 622 37 callgsubr
          -65 796 346 callgsubr
        </CharString>
        <CharString name="Imacron">
          -216 197 622 37 callgsubr
          35 711 372 callsubr
        </CharString>
        <CharString name="Iogonek">
          -215 176 hmoveto
          14 7 5 16 hvcurveto
          601 111 callsubr
          18 hlineto
          -41 314 callsubr
          endchar
        </CharString>
        <CharString name="Itilde">
          -216 197 622 37 callgsubr
          -48 717 rmoveto
          22 17 462 callgsubr
          9 2 389 callsubr
          -56 -24 -16 -7 -25 -20 vhcurveto
          -26 -21 -5 -6 -6 hhcurveto
          -12 -4 6 30 hvcurveto
          12 vlineto
          9 443 callsubr
          -9 hvcurveto
          -39 vlineto
          -40 16 -36 55 23 19 6 30 22 vhcurveto
          endchar
        </CharString>
        <CharString name="J">
          39 356 643 130 callsubr
        </CharString>
        <CharString name="Jcircumflex">
          17 452 825 1 callsubr
          10 1 412 callsubr
          -158 -77 130 callsubr
        </CharString>
        <CharString name="K">
          167 callgsubr
          endchar
        </CharString>
        <CharString name="L">
          103 callsubr
          endchar
        </CharString>
        <CharString name="Lacute">
          103 callsubr
          75 836 113 callsubr
        </CharString>
        <CharString name="Lcaron">
          103 callsubr
          309 624 rmoveto
          14 -8 5 -12 vhcurveto
          -73 hlineto
          -13 282 callgsubr
          7 7 538 callsubr
          101 rlineto
          12 25 11 20 34 vvcurveto
          endchar
        </CharString>
        <CharString name="Ldot">
          16 415 381 callsubr
          8 -271 rmoveto
          118 callsubr
          endchar
        </CharString>
        <CharString name="Lslash">
          35 451 hmoveto
          354 callsubr
          8 -15 vhcurveto
          -211 165 callsubr
          232 vlineto
          82 46 rlineto
          13 7 7 10 15 vvcurveto
          67 vlineto
          13 -9 4 -11 -5 vhcurveto
          -82 -46 rlineto
          157 -48 callgsubr
          -230 vlineto
          -63 -35 rlineto
          -14 -8 -6 -10 -13 vvcurveto
          -65 vlineto
          -13 9 -5 11 5 vhcurveto
          63 36 rlineto
          -263 -21 callsubr
          endchar
        </CharString>
        <CharString name="M">
          244 366 276 rmoveto
          -6 hlineto
          -106 353 rlineto
          9 -3 -5 5 -11 hhcurveto
          -149 hlineto
          -11 -10 -5 -16 hvcurveto
          -601 vlineto
          -17 10 -4 11 vhcurveto
          82 hlineto
          17 4 5 16 hvcurveto
          475 4 vlineto
          104 -336 rlineto
          -14 4 6 -6 15 hhcurveto
          84 529 callsubr
          13 4 hvcurveto
          102 335 rlineto
          4 -474 hlineto
          -11 callgsubr
          82 259 callsubr
          -148 hlineto
          -12 -5 -5 -9 -2 hvcurveto
          endchar
        </CharString>
        <CharString name="Mu">
          81 200 7 rmoveto
          -9 8 42 2 12 hhcurveto
          -44 callsubr
          -601 vlineto
          -16 7 -5 376 callgsubr
          5 16 hvcurveto
          endchar
        </CharString>
        <CharString name="N">
          39 callsubr
          endchar
        </CharString>
        <CharString name="NULL">
          -482 endchar
        </CharString>
        <CharString name="Nacute">
          39 callsubr
          233 836 255 callsubr
          -14 hhcurveto
          endchar
        </CharString>
        <CharString name="Ncaron">
          103 269 707 rmoveto
          65 hlineto
          187 callgsubr
          63 -105 rlineto
          -7 5 6 -4 11 hhcurveto
          -100 -707 rmoveto
          50 callgsubr
          endchar
        </CharString>
        <CharString name="Ntilde">
          39 callsubr
          222 738 rmoveto
          22 18 462 callgsubr
          8 3 389 callsubr
          -56 -24 -17 -7 333 callgsubr
          12 vlineto
          9 -2 2 -9 vhcurveto
          -39 hlineto
          -8 -2 -2 -9 hvcurveto
          -39 vlineto
          -40 16 -36 55 23 19 6 30 21 vhcurveto
          endchar
        </CharString>
        <CharString name="O">
          -40 callgsubr
          endchar
        </CharString>
        <CharString name="OE">
          299 249 479 callsubr
          106 405 callgsubr
          -8 hvcurveto
          -401 vlineto
          518 callgsubr
          -292 53 rmoveto
          40 callsubr
          477 hlineto
          15 6 7 14 hvcurveto
          68 417 callsubr
          -201 hlineto
          -7 248 callsubr
          139 vlineto
          8 4 3 7 vhcurveto
          164 133 callsubr
          -164 hlineto
          -7 248 callsubr
          130 vlineto
          8 4 3 7 vhcurveto
          201 hlineto
          15 6 7 14 hvcurveto
          68 417 callsubr
          -477 131 callsubr
          endchar
        </CharString>
        <CharString name="Oacute">
          -40 callgsubr
          -13 726 255 callsubr
          -13 hhcurveto
          endchar
        </CharString>
        <CharString name="Obreve">
          -40 callgsubr
          -150 713 129 callsubr
        </CharString>
        <CharString name="Ocircumflex">
          -40 callgsubr
          23 715 1 callsubr
          10 1 361 callsubr
        </CharString>
        <CharString name="Odieresis">
          -40 callgsubr
          1 618 10 callgsubr
        </CharString>
        <CharString name="Ograve">
          -40 callgsubr
          -38 707 413 callgsubr
          66 hlineto
          13 4 6 15 -7 hvcurveto
          endchar
        </CharString>
        <CharString name="Ohungarumlaut">
          -40 callgsubr
          78 726 rmoveto
          -13 -10 -4 -15 -7 411 callgsubr
          -8 297 callgsubr
          -6 6 -14 hhcurveto
          -217 hmoveto
          -12 -10 -4 -15 397 callsubr
          42 311 callgsubr
          endchar
        </CharString>
        <CharString name="Omacron">
          -40 callgsubr
          64 622 186 callsubr
        </CharString>
        <CharString name="Oslash">
          98 388 169 106 callsubr
        </CharString>
        <CharString name="Oslashacute">
          98 313 707 rmoveto
          10 257 callgsubr
          -6 9 -13 hhcurveto
          -99 hlineto
          486 callgsubr
          140 -538 106 callsubr
        </CharString>
        <CharString name="Otilde">
          -40 callgsubr
          -20 628 rmoveto
          22 18 4 5 8 hhcurveto
          11 386 callsubr
          -19 vhcurveto
          -26 -21 330 callgsubr
        </CharString>
        <CharString name="P">
          48 203 332 rmoveto
          -7 248 callsubr
          179 vlineto
          8 4 3 7 vhcurveto
          106 hlineto
          43 15 -17 -42 hvcurveto
          -84 vlineto
          -41 460 callgsubr
          -138 -332 448 callgsubr
          189 82 callsubr
          126 525 callsubr
          96 423 callgsubr
          -104 vhcurveto
          -244 58 callgsubr
          endchar
        </CharString>
        <CharString name="Pi">
          181 240 247 callgsubr
          500 82 callsubr
          118 hlineto
          7 4 -3 -8 hvcurveto
          -500 148 callsubr
          500 82 callsubr
          70 hlineto
          15 6 8 14 hvcurveto
          68 417 callsubr
          -558 hlineto
          -16 260 callsubr
          -8 16 vhcurveto
          70 hlineto
          6 5 -2 -6 hvcurveto
          -503 -21 callsubr
          endchar
        </CharString>
        <CharString name="Q">
          87 432 -133 rmoveto
          14 10 10 16 -8 hvcurveto
          -64 111 rlineto
          77 14 44 56 89 vvcurveto
          317 527 callgsubr
          -112 131 callsubr
          -317 7 callgsubr
          27 hlineto
          65 -112 rlineto
          -14 8 8 -7 23 hhcurveto
          -110 243 rmoveto
          325 callsubr
          305 vlineto
          217 callgsubr
          71 hlineto
          43 16 -17 -42 hvcurveto
          -305 240 callgsubr
          endchar
        </CharString>
        <CharString name="R">
          -2 callsubr
          endchar
        </CharString>
        <CharString name="Racute">
          -2 callsubr
          200 836 113 callsubr
        </CharString>
        <CharString name="Rcaron">
          -2 callsubr
          145 707 rmoveto
          65 hlineto
          11 7 4 7 5 hvcurveto
          62 105 rlineto
          7 4 -2 6 -9 hhcurveto
          -60 hlineto
          -9 -5 542 callsubr
          -32 -66 -33 66 rlineto
          9 -3 -6 3 -8 hhcurveto
          -59 173 callsubr
        </CharString>
        <CharString name="S">
          57 49 164 -27 callgsubr
        </CharString>
        <CharString name="Sacute">
          57 282 338 callsubr
          -332 -672 -27 callgsubr
        </CharString>
        <CharString name="Scaron">
          57 295 707 rmoveto
          187 callgsubr
          62 -105 rlineto
          -7 5 7 -4 11 hhcurveto
          -181 -543 -27 callgsubr
        </CharString>
        <CharString name="Scircumflex">
          57 325 825 136 callgsubr
          3 hvcurveto
          33 66 32 -66 rlineto
          -9 4 5 -3 9 hhcurveto
          60 hlineto
          9 2 412 callsubr
          -338 -556 -27 callgsubr
        </CharString>
        <CharString name="Sigma">
          12 209 312 rmoveto
          -129 -170 rlineto
          -11 -17 -4 -11 -26 vvcurveto
          -67 301 callgsubr
          336 hlineto
          16 478 callgsubr
          76 419 callsubr
          -210 4 hlineto
          130 171 7 10 1 20 -8 12 rlinecurve
          -130 185 rlineto
          4 209 vlineto
          16 5 8 14 hvcurveto
          76 419 callsubr
          -335 299 callsubr
          -68 vlineto
          -25 4 -12 11 -16 vhcurveto
          130 -185 rlineto
          endchar
        </CharString>
        <CharString name="T">
          118 callgsubr
          endchar
        </CharString>
        <CharString name="Tbar">
          25 288 hmoveto
          15 7 5 16 hvcurveto
          255 vlineto
          8 3 3 8 vhcurveto
          63 hlineto
          16 4 6 15 hvcurveto
          51 vlineto
          15 240 callsubr
          -63 hlineto
          -8 -3 3 8 hvcurveto
          130 vlineto
          8 3 3 8 vhcurveto
          123 133 callsubr
          -395 165 callgsubr
          122 405 callgsubr
          -8 hvcurveto
          -130 vlineto
          518 callgsubr
          -61 hlineto
          -15 -5 -7 -15 hvcurveto
          -51 vlineto
          -15 4 -57 callsubr
          61 405 callgsubr
          -8 hvcurveto
          -255 -21 callsubr
          endchar
        </CharString>
        <CharString name="Tcaron">
          118 callgsubr
          11 707 91 callsubr
          -4 -5 3 -9 hhcurveto
          -58 hlineto
          -10 501 callsubr
          endchar
        </CharString>
        <CharString name="Thorn">
          22 185 247 callgsubr
          99 82 callsubr
          83 hlineto
          342 callsubr
          53 252 callgsubr
          -83 165 callsubr
          101 111 callsubr
          117 242 rmoveto
          -7 248 callsubr
          136 vlineto
          8 4 3 7 vhcurveto
          63 hlineto
          43 15 -17 -42 hvcurveto
          -41 vlineto
          -42 -15 -16 -43 vhcurveto
          endchar
        </CharString>
        <CharString name="U">
          -52 callsubr
          endchar
        </CharString>
        <CharString name="Uacute">
          -52 callsubr
          -169 193 113 callsubr
        </CharString>
        <CharString name="Ubreve">
          -52 callsubr
          -313 180 129 callsubr
        </CharString>
        <CharString name="Ucircumflex">
          -52 callsubr
          -141 182 rmoveto
          7 -5 -6 4 -11 337 callgsubr
          521 callsubr
        </CharString>
        <CharString name="Udieresis">
          -52 callsubr
          -162 85 10 callgsubr
        </CharString>
        <CharString name="Ugrave">
          -52 callsubr
          -200 174 rmoveto
          14 -8 -9 5 -13 hhcurveto
          -99 hlineto
          -13 -6 310 callsubr
        </CharString>
        <CharString name="Uhungarumlaut">
          -52 callsubr
          -88 193 226 callsubr
        </CharString>
        <CharString name="Umacron">
          -52 callsubr
          -99 89 186 callsubr
        </CharString>
        <CharString name="Uogonek">
          78 394 643 rmoveto
          -18 callgsubr
          -453 240 callgsubr
          -69 hlineto
          -42 -16 17 42 hvcurveto
          453 -48 callgsubr
          -459 7 callgsubr
          40 hlineto
          -41 314 callsubr
          9 hlineto
          342 callsubr
          460 504 callsubr
          -15 vhcurveto
          endchar
        </CharString>
        <CharString name="Uring">
          -52 callsubr
          -207 107 rmoveto
          -17 -5 6 19 hvcurveto
          26 vlineto
          20 6 6 17 249 callgsubr
          -34 -20 -19 -33 hvcurveto
          -64 vlineto
          -35 20 -19 34 vhcurveto
          endchar
        </CharString>
        <CharString name="Utilde">
          -52 callsubr
          -183 95 rmoveto
          22 18 4 5 7 hhcurveto
          12 386 callsubr
          -20 vhcurveto
          -26 -20 330 callgsubr
        </CharString>
        <CharString name="V">
          39 327 hmoveto
          12 8 5 16 4 hvcurveto
          155 599 rlineto
          14 3 -7 9 -16 hhcurveto
          -94 hlineto
          -15 -6 -5 -16 -3 hvcurveto
          -105 -492 rlineto
          -4 hlineto
          -105 492 rlineto
          16 -3 -6 5 -15 hhcurveto
          -94 hlineto
          -17 -7 -9 -14 4 hvcurveto
          155 -599 rlineto
          -16 3 9 -5 13 hhcurveto
          endchar
        </CharString>
        <CharString name="W">
          325 -31 callsubr
          endchar
        </CharString>
        <CharString name="Wacute">
          326 -31 callsubr
          294 836 255 callsubr
          -13 hhcurveto
          endchar
        </CharString>
        <CharString name="Wcircumflex">
          326 -31 callsubr
          316 825 1 callsubr
          10 1 361 callsubr
        </CharString>
        <CharString name="Wdieresis">
          326 -31 callsubr
          292 728 34 callgsubr
        </CharString>
        <CharString name="Wgrave">
          326 -31 callsubr
          254 817 262 callsubr
          -7 hvcurveto
          endchar
        </CharString>
        <CharString name="X">
          58 371 20 rmoveto
          -15 6 10 -5 13 hhcurveto
          100 hlineto
          14 7 10 13 -7 hvcurveto
          -155 306 152 291 rlineto
          10 5 -6 13 -14 hhcurveto
          -98 hlineto
          -14 -10 -5 -16 -8 hvcurveto
          -94 -215 rlineto
          -4 hlineto
          -95 215 rlineto
          16 -6 -13 5 -14 hhcurveto
          -96 hlineto
          -13 -7 -11 -11 6 hvcurveto
          150 -292 -155 -307 rlineto
          -12 -6 7 -10 13 hhcurveto
          99 hlineto
          14 9 5 15 7 hvcurveto
          100 216 rlineto
          4 hlineto
          endchar
        </CharString>
        <CharString name="Y">
          16 callsubr
          endchar
        </CharString>
        <CharString name="Yacute">
          16 callsubr
          68 836 rmoveto
          -13 -9 -5 -14 -8 hvcurveto
          -44 -89 rlineto
          -15 -8 5 481 callgsubr
          -6 9 -13 hhcurveto
          endchar
        </CharString>
        <CharString name="Ycircumflex">
          16 callsubr
          93 825 149 callgsubr
        </CharString>
        <CharString name="Ydieresis">
          16 callsubr
          78 728 10 callgsubr
        </CharString>
        <CharString name="Ygrave">
          16 callsubr
          44 489 callgsubr
          -98 hlineto
          -14 179 callsubr
        </CharString>
        <CharString name="Z">
          38 callsubr
          endchar
        </CharString>
        <CharString name="Zacute">
          38 callsubr
          259 755 113 callsubr
        </CharString>
        <CharString name="Zcaron">
          38 callsubr
          200 626 49 callsubr
        </CharString>
        <CharString name="Zdotaccent">
          38 callsubr
          173 648 280 callgsubr
          endchar
        </CharString>
        <CharString name="a">
          -38 callsubr
          endchar
        </CharString>
        <CharString name="aacute">
          -38 callsubr
          91 703 95 callsubr
          -13 hhcurveto
          endchar
        </CharString>
        <CharString name="abreve">
          36 161 679 rmoveto
          207 callgsubr
          -9 -5 -4 -9 hvcurveto
          -9 vlineto
          -31 -11 -12 -23 vhcurveto
          -8 223 callsubr
          73 -690 2 callsubr
          126 186 rmoveto
          -43 -14 -33 -55 vhcurveto
          -37 76 callgsubr
          endchar
        </CharString>
        <CharString name="acircumflex">
          -38 callsubr
          114 692 1 callsubr
          10 1 361 callsubr
        </CharString>
        <CharString name="acute">
          -184 132 227 callgsubr
        </CharString>
        <CharString name="acute.uc">
          -106 174 836 113 callsubr
        </CharString>
        <CharString name="adieresis">
          -38 callsubr
          101 595 10 callgsubr
        </CharString>
        <CharString name="ae">
          59 callsubr
          endchar
        </CharString>
        <CharString name="aeacute">
          59 callsubr
          -36 534 rmoveto
          -12 -10 -5 -14 -7 hvcurveto
          -45 -89 rlineto
          -15 -7 4 437 callsubr
        </CharString>
        <CharString name="agrave">
          -38 callsubr
          75 684 287 callsubr
          14 370 callgsubr
        </CharString>
        <CharString name="amacron">
          -38 callsubr
          171 171 callsubr
        </CharString>
        <CharString name="ampersand">
          136 429 14 rmoveto
          -10 8 14 -4 13 hhcurveto
          107 hlineto
          10 2 10 8 -6 hvcurveto
          -163 194 rlineto
          130 hlineto
          16 5 6 15 hvcurveto
          68 497 callgsubr
          -222 hlineto
          -47 54 rlineto
          -23 26 -21 32 31 vvcurveto
          13 vlineto
          42 17 16 38 vhcurveto
          8 hlineto
          34 16 -16 -42 hvcurveto
          -32 vlineto
          -15 7 -7 376 callgsubr
          7 15 hvcurveto
          34 466 callsubr
          -33 hlineto
          -104 -69 -57 -105 hvcurveto
          -11 vlineto
          -47 14 -37 25 -33 vhcurveto
          -68 -8 -33 -63 -62 vvcurveto
          -58 vlineto
          -105 60 -57 105 vhcurveto
          61 hlineto
          70 36 19 47 15 hvcurveto
          -163 45 rmoveto
          -43 -19 16 42 hvcurveto
          43 vlineto
          48 11 18 32 1 vhcurveto
          109 -128 rlineto
          -29 -4 -15 -11 -29 hhcurveto
          endchar
        </CharString>
        <CharString name="aogonek">
          36 336 186 rmoveto
          -43 -14 -33 -55 vhcurveto
          -37 76 callgsubr
          -126 121 rmoveto
          203 callgsubr
          -184 7 callgsubr
          24 hlineto
          93 callsubr
          -3 vlineto
          -37 -71 rlineto
          -24 -15 -3 -41 33 hhcurveto
          27 62 12 31 3 hvcurveto
          4 13 -6 5 -13 -1 rrcurveto
          -2 -36 -3 -7 -5 26 47 16 10 vhcurveto
          62 483 callgsubr
        </CharString>
        <CharString name="approxequal">
          83 178 381 rmoveto
          65 68 -32 73 hhcurveto
          35 28 7 8 364 callgsubr
          -29 -48 -79 -60 31 -67 hhcurveto
          -35 -28 -7 -8 -20 hvcurveto
          -20 -8 -8 -9 -20 vvcurveto
          -59 vlineto
          -8 6 -5 533 callsubr
          -182 vmoveto
          65 68 -32 73 hhcurveto
          35 28 7 8 364 callgsubr
          -30 -48 -79 -60 32 -67 hhcurveto
          -35 -28 -7 -8 -20 hvcurveto
          -20 -8 -8 -9 -20 vvcurveto
          -59 vlineto
          -8 6 -5 533 callsubr
          endchar
        </CharString>
        <CharString name="aring">
          36 191 607 rmoveto
          -32 17 331 callsubr
          -17 -15 -31 hvcurveto
          43 -21 rmoveto
          23 7 5 20 vhcurveto
          17 426 callsubr
          -16 hlineto
          -20 -7 6 21 hvcurveto
          -624 vmoveto
          -8 callgsubr
          126 186 rmoveto
          -43 -14 -33 -55 vhcurveto
          -37 76 callgsubr
          endchar
        </CharString>
        <CharString name="asciicircum">
          29 345 382 rmoveto
          -14 7 6 -6 14 hhcurveto
          77 hlineto
          14 9 6 15 -8 hvcurveto
          -120 229 rlineto
          24 -12 -9 7 -23 hhcurveto
          -90 hlineto
          -23 -9 -7 -24 -12 hvcurveto
          -120 -229 rlineto
          -15 -8 9 -6 14 hhcurveto
          77 hlineto
          14 6 6 14 7 hvcurveto
          90 179 rlineto
          endchar
        </CharString>
        <CharString name="asciitilde">
          83 178 289 rmoveto
          65 68 -31 73 hhcurveto
          35 28 6 9 364 callgsubr
          -30 -48 -79 -60 32 -67 hhcurveto
          -35 -28 -7 -8 -20 hvcurveto
          -20 -9 -8 -8 -21 vvcurveto
          -58 vlineto
          -8 6 -6 533 callsubr
          endchar
        </CharString>
        <CharString name="asterisk">
          -84 242 624 rmoveto
          14 -7 5 -13 vhcurveto
          -50 hlineto
          -13 -7 -5 -14 hvcurveto
          -9 vlineto
          -69 47 -60 1 -2 vhcurveto
          1 2 41 60 69 vvcurveto
          -159 -220 rmoveto
          -9 -11 3 -10 11 -6 40 -30 rcurveline
          11 -7 10 0 7 10 5 8 rcurveline
          41 56 -3 76 1 3 -3 -2 -68 -24 -41 -56 rrcurveto
          -8 164 rmoveto
          -14 5 -7 -5 -4 -12 -15 -48 rcurveline
          -4 -12 3 -9 12 -4 9 -3 rcurveline
          -21 66 71 27 3 hhcurveto
          -2 1 -44 57 -67 22 rrcurveto
          259 -77 rmoveto
          14 4 3 9 -4 12 -15 48 rcurveline
          -5 12 -7 5 -13 -4 -9 -3 rcurveline
          -67 -20 -41 -65 -2 -1 3 -1 69 -21 66 22 rrcurveto
          -90 -138 rmoveto
          9 -11 8 0 11 7 41 29 rcurveline
          10 7 1 10 -7 10 -5 8 rcurveline
          -41 56 -73 20 -2 2 rrcurveto
          -3 -1 -74 44 -55 vhcurveto
          endchar
        </CharString>
        <CharString name="at">
          264 440 253 rmoveto
          -44 -14 -32 -55 vhcurveto
          -3 hlineto
          -43 -15 17 41 hvcurveto
          71 vlineto
          217 callgsubr
          60 405 callgsubr
          -9 hvcurveto
          -146 250 rmoveto
          -140 -97 -109 -133 hvcurveto
          -183 vlineto
          -142 107 -94 148 vhcurveto
          179 hlineto
          16 478 callgsubr
          30 419 callsubr
          -180 hlineto
          -109 -73 64 114 hvcurveto
          161 vlineto
          114 64 64 109 vhcurveto
          189 hlineto
          73 61 -38 -79 hvcurveto
          -190 vlineto
          -47 -22 -19 -42 -1 vhcurveto
          -8 -11 3 9 hvcurveto
          270 177 callsubr
          -173 hlineto
          -87 -61 -58 -105 hvcurveto
          -59 vlineto
          -105 61 -50 77 37 44 13 42 18 vhcurveto
          4 -4 hlineto
          -36 33 -15 33 vhcurveto
          58 hlineto
          77 57 54 78 hvcurveto
          206 vlineto
          104 -82 78 -117 vhcurveto
          endchar
        </CharString>
        <CharString name="atilde">
          -38 callsubr
          -57 279 callsubr
          -20 475 callgsubr
          -5 6 30 hvcurveto
          11 vlineto
          10 -2 2 -8 vhcurveto
          -39 hlineto
          -9 -2 -2 -10 hvcurveto
          endchar
        </CharString>
        <CharString name="b">
          44 55 490 callsubr
          240 hlineto
          105 60 58 105 hvcurveto
          186 527 callgsubr
          -32 hlineto
          -37 -45 -16 -39 -16 hvcurveto
          -4 225 hlineto
          -69 callsubr
          138 -572 rmoveto
          -7 248 callsubr
          205 vlineto
          43 14 33 55 vhcurveto
          44 hlineto
          43 16 -17 -42 hvcurveto
          -174 240 callgsubr
          endchar
        </CharString>
        <CharString name="backslash">
          -73 259 21 rmoveto
          -16 6 7 -5 14 hhcurveto
          77 hlineto
          14 8 6 15 -6 hvcurveto
          -64 165 -100 271 -64 165 rrcurveto
          14 -6 -6 7 -15 hhcurveto
          -78 hlineto
          -14 -7 -6 -15 6 hvcurveto
          endchar
        </CharString>
        <CharString name="bar">
          -251 159 622 rmoveto
          16 -8 5 -14 vhcurveto
          -43 58 callgsubr
          43 526 callgsubr
          endchar
        </CharString>
        <CharString name="braceleft">
          -167 235 643 rmoveto
          -102 -47 -58 -105 hvcurveto
          -101 vlineto
          -40 -15 -13 -27 -16 -5 -8 -14 vhcurveto
          -67 vlineto
          -15 5 -7 16 27 15 -13 -40 vhcurveto
          -101 vlineto
          -105 47 -58 102 vhcurveto
          8 hlineto
          404 callsubr
          47 38 callgsubr
          -3 hlineto
          -42 -12 17 42 hvcurveto
          126 vlineto
          53 -18 33 -44 12 vhcurveto
          47 15 15 31 53 vvcurveto
          126 vlineto
          42 12 17 42 vhcurveto
          3 hlineto
          404 callsubr
          47 38 callgsubr
          endchar
        </CharString>
        <CharString name="braceright">
          -167 201 480 rmoveto
          105 -48 58 -102 vhcurveto
          -7 299 callsubr
          -47 467 callsubr
          3 hlineto
          41 12 -17 -42 hvcurveto
          -126 vlineto
          -53 16 -31 46 -15 vhcurveto
          -44 -12 -18 -33 -53 vvcurveto
          -126 vlineto
          -42 -12 -17 -41 vhcurveto
          -3 299 callsubr
          -47 467 callsubr
          7 hlineto
          102 48 58 105 hvcurveto
          101 vlineto
          40 14 13 28 15 5 7 15 vhcurveto
          67 vlineto
          14 -5 8 -15 -28 -14 13 40 vhcurveto
          endchar
        </CharString>
        <CharString name="bracketleft">
          -159 241 -98 468 callsubr
          43 38 callgsubr
          -50 491 callsubr
          547 469 callsubr
          50 hlineto
          404 callsubr
          43 38 callgsubr
          -144 403 callgsubr
          -698 vlineto
          -15 5 -7 15 vhcurveto
          endchar
        </CharString>
        <CharString name="bracketright">
          -159 60 -77 402 callsubr
          143 hlineto
          15 5 7 15 hvcurveto
          698 38 callgsubr
          -143 299 callsubr
          -43 467 callsubr
          50 hlineto
          7 4 -3 -9 hvcurveto
          -547 vlineto
          -9 -4 -3 -7 vhcurveto
          -50 299 callsubr
          endchar
        </CharString>
        <CharString name="breve">
          -144 53 679 rmoveto
          -69 38 -36 60 vhcurveto
          35 hlineto
          60 38 36 69 hvcurveto
          11 vlineto
          9 -5 4 -9 vhcurveto
          -49 hlineto
          -10 360 callsubr
          endchar
        </CharString>
        <CharString name="breve.uc">
          -95 78 823 204 callsubr
          -11 492 callsubr
          -4 4 -9 vhcurveto
          -50 461 callsubr
          -9 hvcurveto
          endchar
        </CharString>
        <CharString name="brokenbar">
          -252 158 251 rmoveto
          391 callsubr
          601 vmoveto
          391 callsubr
          endchar
        </CharString>
        <CharString name="bullet">
          -188 235 351 rmoveto
          44 -27 26 -45 vhcurveto
          -33 hlineto
          -46 -26 -26 -44 hvcurveto
          -61 vlineto
          -45 26 -25 46 vhcurveto
          33 hlineto
          45 27 25 45 hvcurveto
          endchar
        </CharString>
        <CharString name="c">
          58 callsubr
          endchar
        </CharString>
        <CharString name="cacute">
          58 callsubr
          -125 683 rmoveto
          -12 -10 -5 -14 -8 hvcurveto
          -44 -89 rlineto
          -15 -8 5 437 callsubr
        </CharString>
        <CharString name="caron">
          -137 140 574 138 callgsubr
        </CharString>
        <CharString name="caron.uc">
          -137 140 707 138 callgsubr
        </CharString>
        <CharString name="ccaron">
          58 callsubr
          -172 554 49 callsubr
        </CharString>
        <CharString name="ccedilla">
          -71 359 400 rmoveto
          241 callsubr
          69 417 callsubr
          -149 -24 callsubr
          14 hlineto
          -33 -39 rlineto
          -21 -18 12 -34 24 hhcurveto
          26 hlineto
          36 9 -4 -20 hvcurveto
          -2 vlineto
          -18 -8 -5 -37 vhcurveto
          -33 hlineto
          -15 -4 -4 -15 hvcurveto
          -20 vlineto
          -14 3 -4 16 vhcurveto
          45 hlineto
          55 39 21 49 hvcurveto
          18 vlineto
          55 -29 20 -45 vhcurveto
          4 vlineto
          33 33 rlineto
          59 510 callgsubr
          -129 hlineto
          -42 -16 17 42 hvcurveto
          172 vlineto
          42 16 17 42 vhcurveto
          endchar
        </CharString>
        <CharString name="cdotaccent">
          58 callsubr
          -203 571 rmoveto
          -13 6 -7 14 vhcurveto
          88 hlineto
          13 6 527 callsubr
          -7 5 -12 vhcurveto
          -88 252 callsubr
          endchar
        </CharString>
        <CharString name="cedilla">
          -216 62 -39 rmoveto
          158 callgsubr
          53 53 rlineto
          -78 hlineto
          endchar
        </CharString>
        <CharString name="cedilla.uc">
          -107 117 -39 rmoveto
          158 callgsubr
          53 53 rlineto
          -78 hlineto
          endchar
        </CharString>
        <CharString name="cent">
          -52 287 -94 rmoveto
          12 7 5 14 hvcurveto
          75 63 vlineto
          15 7 7 14 hvcurveto
          69 vlineto
          13 -7 7 -15 vhcurveto
          -139 hlineto
          -42 -16 17 42 hvcurveto
          172 vlineto
          42 16 17 42 vhcurveto
          139 hlineto
          15 7 7 13 hvcurveto
          69 vlineto
          14 -24 7 -14 vhcurveto
          -47 78 hlineto
          13 -7 6 -12 vhcurveto
          -63 hlineto
          -13 -7 -7 -13 hvcurveto
          -77 -7 vlineto
          -97 -55 -62 -101 hvcurveto
          -184 vlineto
          -101 55 -62 97 vhcurveto
          7 -74 hlineto
          -14 7 -6 13 vhcurveto
          endchar
        </CharString>
        <CharString name="circumflex">
          -137 227 692 136 callgsubr
          4 hvcurveto
          32 279 callgsubr
        </CharString>
        <CharString name="circumflex.uc">
          -137 227 825 136 callgsubr
          4 hvcurveto
          32 279 callgsubr
        </CharString>
        <CharString name="colon">
          -278 166 144 199 callgsubr
          470 vmoveto
          390 callsubr
          endchar
        </CharString>
        <CharString name="comma">
          340 callgsubr
          -230 531 callsubr
          69 101 rlineto
          15 23 8 17 22 vvcurveto
          endchar
        </CharString>
        <CharString name="commaaccent">
          -482 312 -51 rmoveto
          14 -7 5 -13 vhcurveto
          -72 252 callsubr
          -166 vlineto
          -15 8 -5 9 8 6 444 callgsubr
          7 20 22 vvcurveto
          endchar
        </CharString>
        <CharString name="copyright">
          221 189 643 rmoveto
          -78 -48 -46 -78 hvcurveto
          -395 vlineto
          -78 48 -46 78 vhcurveto
          326 hlineto
          78 48 46 78 hvcurveto
          395 vlineto
          78 -48 46 -78 vhcurveto
          -301 -569 rmoveto
          -49 -22 17 49 hvcurveto
          363 vlineto
          49 22 17 49 vhcurveto
          275 hlineto
          49 22 -17 -49 hvcurveto
          -363 vlineto
          -49 -22 -17 -49 vhcurveto
          1 329 rmoveto
          70 -40 36 -69 vhcurveto
          -52 hlineto
          -69 -41 -36 -70 hvcurveto
          -162 vlineto
          -69 41 -37 69 vhcurveto
          52 hlineto
          69 40 37 69 hvcurveto
          29 vlineto
          10 -4 4 -9 vhcurveto
          -53 461 callsubr
          -10 hvcurveto
          -14 vlineto
          -47 -6 -4 -47 vhcurveto
          -5 hlineto
          -46 -6 4 47 hvcurveto
          133 vlineto
          46 6 4 46 vhcurveto
          5 hlineto
          47 6 -4 -46 hvcurveto
          -14 vlineto
          -10 5 -3 9 vhcurveto
          53 hlineto
          9 4 3 10 hvcurveto
          endchar
        </CharString>
        <CharString name="d">
          44 157 callsubr
          endchar
        </CharString>
        <CharString name="dagger">
          -74 215 hmoveto
          14 8 5 16 2 hvcurveto
          9 61 17 156 83 vvcurveto
          26 -6 34 247 callsubr
          108 17 rlineto
          -11 -26 -5 -34 -25 vvcurveto
          -83 17 -156 9 -61 vhcurveto
          -16 2 7 -5 15 hhcurveto
          endchar
        </CharString>
        <CharString name="daggerdbl">
          -74 155 406 rmoveto
          -11 -26 -5 -35 -25 vvcurveto
          -26 5 -34 11 -25 vhcurveto
          -109 16 rlineto
          -16 3 -5 -10 -14 vvcurveto
          -71 485 callgsubr
          16 3 vhcurveto
          111 17 -19 -137 rlineto
          -16 -3 10 -5 14 hhcurveto
          142 callsubr
          -20 138 117 -18 rlineto
          15 -3 6 7 14 vvcurveto
          71 vlineto
          14 -6 10 -15 -3 vhcurveto
          -114 -17 rlineto
          11 25 6 35 26 vvcurveto
          26 -6 35 247 callsubr
          endchar
        </CharString>
        <CharString name="dcaron">
          152 157 callsubr
          434 684 rmoveto
          14 -7 5 -12 vhcurveto
          -73 hlineto
          -13 282 callgsubr
          7 7 499 callsubr
          52 101 rlineto
          13 25 10 20 34 vvcurveto
          endchar
        </CharString>
        <CharString name="dcroat">
          81 344 186 rmoveto
          285 callgsubr
          -45 523 callgsubr
          119 377 callsubr
          45 hlineto
          55 14 -32 -43 hvcurveto
          -102 -271 rmoveto
          93 callsubr
          520 callsubr
          501 469 callsubr
          54 429 callgsubr
          -54 491 callsubr
          43 -48 callgsubr
          -43 vlineto
          -9 548 callsubr
          -130 403 callgsubr
          -52 vlineto
          -15 4 -5 16 vhcurveto
          130 405 callgsubr
          -9 hvcurveto
          -120 -4 vlineto
          39 -16 -45 16 -37 hhcurveto
          -32 131 callsubr
          -131 7 callgsubr
          endchar
        </CharString>
        <CharString name="degree">
          -103 196 557 rmoveto
          -14 hlineto
          -18 -4 4 17 hvcurveto
          56 vlineto
          19 4 3 18 vhcurveto
          14 hlineto
          17 5 -3 -19 hvcurveto
          -56 vlineto
          -17 -5 -4 -17 vhcurveto
          24 -47 rmoveto
          30 20 18 31 hvcurveto
          97 vlineto
          30 -20 17 -30 vhcurveto
          -62 hlineto
          -31 -18 -17 -30 hvcurveto
          -97 vlineto
          -31 18 -18 31 vhcurveto
          endchar
        </CharString>
        <CharString name="dieresis">
          -66 243 595 34 callgsubr
        </CharString>
        <CharString name="dieresis.uc">
          -95 229 728 34 callgsubr
        </CharString>
        <CharString name="divide">
          -18 190 432 rmoveto
          -15 28 callsubr
          43 hlineto
          14 8 5 15 hvcurveto
          49 vlineto
          16 -8 5 -14 vhcurveto
          -43 hlineto
          -18 callgsubr
          183 -203 468 callsubr
          43 38 callgsubr
          -281 299 callsubr
          -43 467 callsubr
          98 -118 496 callgsubr
          43 526 callgsubr
          49 vlineto
          15 -8 5 -14 vhcurveto
          -43 hlineto
          -14 -7 -5 -15 hvcurveto
          endchar
        </CharString>
        <CharString name="dollar">
          45 296 -98 448 callgsubr
          77 2 vlineto
          100 540 callsubr
          38 vlineto
          137 -85 30 -81 7 vhcurveto
          -38 3 rlineto
          -59 5 -45 7 46 vvcurveto
          20 vlineto
          60 16 16 54 vhcurveto
          32 hlineto
          54 16 -15 -51 hvcurveto
          -7 vlineto
          -15 7 -6 14 vhcurveto
          85 494 callgsubr
          19 vlineto
          101 -58 63 -95 vhcurveto
          -2 79 hlineto
          -2 callgsubr
          -60 hlineto
          -18 callgsubr
          -79 -7 vlineto
          -103 -59 -59 -105 hvcurveto
          -37 vlineto
          -146 88 -24 84 -8 vhcurveto
          33 -3 rlineto
          58 -5 45 -8 -52 vvcurveto
          -15 vlineto
          -55 -18 -16 -52 vhcurveto
          -40 hlineto
          -53 -17 15 51 hvcurveto
          7 -48 callgsubr
          -19 vlineto
          -103 60 -61 101 vhcurveto
          7 -77 hlineto
          -11 callgsubr
          endchar
        </CharString>
        <CharString name="dotaccent">
          -248 53 591 rmoveto
          320 callsubr
          96 353 callsubr
          endchar
        </CharString>
        <CharString name="dotaccent.uc">
          -121 112 729 280 callgsubr
          endchar
        </CharString>
        <CharString name="dotlessi">
          -226 64 21 rmoveto
          35 callsubr
          endchar
        </CharString>
        <CharString name="dvDDH_DDHA">
          5 189 callsubr
          303 -13 callgsubr
          -89 hlineto
          323 callsubr
          -86 vlineto
          -55 15 -44 31 -30 vhcurveto
          -30 -22 -15 -35 -49 211 callsubr
          77 hlineto
          106 49 53 92 hvcurveto
          22 vlineto
          68 -37 42 -92 -85 -26 -46 -57 vhcurveto
          -18 vlineto
          -20 7 -7 27 vhcurveto
          38 121 callgsubr
          16 vlineto
          10 3 11 17 20 3 -11 -10 vhcurveto
          -19 vlineto
          -35 -14 -15 -40 vhcurveto
          -72 hlineto
          -50 -18 15 47 hvcurveto
          91 vlineto
          47 18 21 45 vhcurveto
          153 hlineto
          29 21 16 34 hvcurveto
          93 -104 callgsubr
          57 -74 callgsubr
          endchar
        </CharString>
        <CharString name="dvDD_GA">
          44 -6 623 215 callgsubr
          325 89 callsubr
          -18 210 callgsubr
          -138 362 callsubr
          -39 -24 0 30 157 callgsubr
          197 4 callgsubr
          80 -104 callgsubr
          74 7 callsubr
        </CharString>
        <CharString name="dvD_BHA.aSimp">
          518 436 -61 rmoveto
          13 -9 -10 7 -14 hhcurveto
          -66 hlineto
          -43 callgsubr
          246 819 rmoveto
          49 callgsubr
          -503 hlineto
          22 callsubr
          -103 51 -66 116 vhcurveto
          211 callgsubr
          58 hlineto
          40 13 -23 -48 183 callgsubr
          132 -98 callgsubr
          -191 vlineto
          -107 callgsubr
          endchar
        </CharString>
        <CharString name="dvH_VA.aTrad">
          95 425 201 rmoveto
          -45 vlineto
          -34 -1 -28 -47 vhcurveto
          -5 hlineto
          -31 1 -17 17 33 vvcurveto
          33 15 23 31 vhcurveto
          -376 422 158 callsubr
          -131 vlineto
          -106 56 -54 146 vhcurveto
          262 86 callsubr
          -249 hlineto
          -77 -21 13 51 hvcurveto
          127 525 callgsubr
          5 hlineto
          -7 -17 -4 -22 -25 vvcurveto
          -88 58 -49 104 vhcurveto
          8 hlineto
          111 45 60 104 hvcurveto
          74 vlineto
          40 -26 15 -33 vhcurveto
          -268 292 callsubr
          93 7 callsubr
        </CharString>
        <CharString name="dvK_SHA.a">
          662 571 461 rmoveto
          -59 174 callsubr
          83 11 callsubr
          53 -74 callgsubr
          -493 55 callsubr
          270 84 callsubr
          177 121 callgsubr
          102 vlineto
          28 9 15 31 31 9 -16 -28 vhcurveto
          -120 229 callsubr
          -102 27 callsubr
          -72 vlineto
          41 -38 121 -149 -49 callgsubr
          82 -63 callsubr
          -142 160 rlineto
          7 hlineto
          127 52 65 100 hvcurveto
          113 vlineto
          99 -61 49 -94 -100 -55 -49 -99 vhcurveto
          441 146 401 callsubr
          -554 vlineto
          -107 callgsubr
          endchar
        </CharString>
        <CharString name="dvNG_GA">
          142 510 401 rmoveto
          -85 callgsubr
          65 131 callgsubr
          -586 222 215 callgsubr
          335 89 callsubr
          -18 210 callgsubr
          -148 362 callsubr
          -40 -23 2 28 157 callgsubr
          207 4 callgsubr
          80 -104 callgsubr
          162 7 callsubr
        </CharString>
        <CharString name="dvNG_MA">
          341 488 395 rmoveto
          -85 callgsubr
          65 131 callgsubr
          88 -382 156 callsubr
          -207 87 callgsubr
          59 vlineto
          18 22 10 29 36 vvcurveto
          340 callsubr
          167 4 callgsubr
          80 -104 callgsubr
          208 -91 callsubr
          -652 118 215 callgsubr
          295 89 callsubr
          -18 210 callgsubr
          -108 509 callgsubr
          114 hlineto
          20 11 -8 -30 hvcurveto
          -11 vlineto
          -28 -11 -9 -20 vhcurveto
          -82 hlineto
          -39 -24 0 29 hvcurveto
          7 56 callsubr
          -5 vlineto
          -108 66 -24 94 vhcurveto
          98 -203 hlineto
          -59 callsubr
          56 -104 callgsubr
          207 -98 callgsubr
          -129 vlineto
          -59 callsubr
          751 -105 callgsubr
          endchar
        </CharString>
        <CharString name="dvNY_CA">
          481 293 321 rmoveto
          -1 7 0 2 -1 5 rrcurveto
          74 -14 -52 45 -99 2 callgsubr
          96 54 44 73 15 hvcurveto
          1 5 307 callsubr
          68 hlineto
          320 callgsubr
          -68 hlineto
          447 callgsubr
          213 24 rmoveto
          528 callgsubr
          -21 278 callgsubr
          49 hlineto
          56 29 24 24 12 hvcurveto
          4 -103 404 callgsubr
          71 -92 callsubr
          -975 -67 callsubr
          779 124 callsubr
        </CharString>
        <CharString name="dvOm.a01">
          385 498 822 rmoveto
          15 7 8 15 hvcurveto
          50 vlineto
          455 callsubr
          93 -137 15 callsubr
          143 -62 209 callgsubr
          vhcurveto
          73 hlineto
          58 32 -31 -53 hvcurveto
          -294 395 callsubr
          107 vlineto
          60 -39 13 -37 vhcurveto
          -161 4 hlineto
          43 callsubr
          44 60 12 callgsubr
          -76 428 callgsubr
          315 vlineto
          105 -63 73 -106 vhcurveto
          endchar
        </CharString>
        <CharString name="dvOm.a02">
          385 498 822 rmoveto
          15 7 8 15 hvcurveto
          50 vlineto
          455 callsubr
          93 -137 15 callsubr
          247 -62 rmoveto
          -79 -49 -51 -79 hvcurveto
          -76 vlineto
          -19 8 -10 17 vhcurveto
          62 hlineto
          14 8 10 19 hvcurveto
          64 vlineto
          24 14 12 23 2 vhcurveto
          4 hlineto
          23 -2 14 -12 -24 vvcurveto
          -339 395 callsubr
          107 vlineto
          60 -39 13 -37 vhcurveto
          -161 4 hlineto
          43 callsubr
          44 60 12 callgsubr
          -76 428 callgsubr
          363 vlineto
          79 -50 51 -79 vhcurveto
          endchar
        </CharString>
        <CharString name="dvSHA_MatraVocalicR">
          391 callgsubr
          436 -480 rmoveto
          329 callsubr
          503 -105 callgsubr
          -138 hlineto
          231 callgsubr
          209 -134 rlineto
          -61 vlineto
          -61 -14 -39 -43 -89 vvcurveto
          -113 60 -48 101 vhcurveto
          453 callgsubr
          endchar
        </CharString>
        <CharString name="dvTTH_TTHA">
          12 226 185 rmoveto
          -49 -24 24 48 hvcurveto
          10 325 callgsubr
          49 445 callsubr
          -10 108 callsubr
          73 -328 381 callgsubr
          756 rmoveto
          -25 callsubr
          281 89 callsubr
          368 callgsubr
          -28 430 callsubr
          -17 356 callsubr
          74 hlineto
          4 288 callsubr
          52 vlineto
          32 28 18 42 54 vvcurveto
          53 vlineto
          63 -36 36 -49 7 vhcurveto
          4 vlineto
          27 8 8 28 25 vvcurveto
          38 -104 callgsubr
          85 -74 callgsubr
          endchar
        </CharString>
        <CharString name="dvTT_GA">
          309 callgsubr
          -71 26 -55 55 -27 vhcurveto
          -81 vlineto
          -48 -21 -21 -49 vhcurveto
          -5 42 callsubr
          -59 vlineto
          -16 -84 callgsubr
          25 hlineto
          109 58 61 110 hvcurveto
          67 70 vlineto
          5 -310 hlineto
          -59 callsubr
          347 vlineto
          32 28 16 42 59 107 callsubr
        </CharString>
        <CharString name="dvT_KH_NA">
          929 831 267 rmoveto
          -49 -16 -16 -43 vhcurveto
          -11 hlineto
          -42 406 callsubr
          23 vlineto
          47 16 16 42 vhcurveto
          11 hlineto
          43 16 -16 -47 hvcurveto
          -837 333 -59 callgsubr
          446 -91 callsubr
          277 callgsubr
          39 -68 hhcurveto
          -71 hlineto
          129 callgsubr
          -94 -64 callsubr
          91 vlineto
          48 14 22 49 vhcurveto
          51 403 callsubr
          -62 70 callsubr
          8 hlineto
          71 3 43 52 76 vvcurveto
          139 -104 callgsubr
          647 hlineto
          190 callgsubr
          -66 -46 -39 -60 -8 hvcurveto
          -4 4 hlineto
          87 -48 62 -124 vhcurveto
          -11 hlineto
          -123 -48 -62 -87 hvcurveto
          -47 vlineto
          -91 48 -65 123 vhcurveto
          11 hlineto
          124 48 65 91 hvcurveto
          -5 4 vlineto
          -16 3 -21 13 -20 vhcurveto
          -9 6 13 -53 callgsubr
          108 hlineto
          -58 callgsubr
          -9 hvcurveto
          -259 vlineto
          -107 callgsubr
          endchar
        </CharString>
        <CharString name="dvT_S_NA">
          648 954 415 297 callsubr
          -53 -41 -24 -40 -19 hvcurveto
          -123 13 callgsubr
          365 -91 callsubr
          -960 8 callgsubr
          444 -98 callgsubr
          390 callgsubr
          -11 hlineto
          62 -12 -45 38 -74 hhcurveto
          -57 hlineto
          129 callgsubr
          -94 -64 callsubr
          91 vlineto
          48 14 22 49 vhcurveto
          36 hlineto
          36 16 -19 -29 hvcurveto
          -46 -16 callsubr
          222 hlineto
          3 -14 5 -13 8 -9 rrcurveto
          223 callgsubr
          -259 vlineto
          -107 callgsubr
          endchar
        </CharString>
        <CharString name="e">
          -64 callgsubr
          endchar
        </CharString>
        <CharString name="eacute">
          -64 callgsubr
          72 703 339 callgsubr
        </CharString>
        <CharString name="ebreve">
          12 139 679 rmoveto
          273 callgsubr
          292 -690 rmoveto
          241 callsubr
          66 vlineto
          15 461 callgsubr
          -202 528 callsubr
          41 hvcurveto
          22 82 callsubr
          251 hlineto
          32 callgsubr
          -28 284 rmoveto
          -7 248 callsubr
          48 377 callsubr
          42 hlineto
          43 15 -16 -42 hvcurveto
          -48 vlineto
          -8 -3 -3 -8 vhcurveto
          endchar
        </CharString>
        <CharString name="ecaron">
          -64 callgsubr
          12 574 49 callsubr
        </CharString>
        <CharString name="ecircumflex">
          -64 callgsubr
          99 692 149 callgsubr
        </CharString>
        <CharString name="edieresis">
          -64 callgsubr
          80 595 392 callgsubr
          -190 -88 392 callgsubr
          endchar
        </CharString>
        <CharString name="edotaccent">
          -64 callgsubr
          -18 591 rmoveto
          -13 6 451 callsubr
          -6 -6 -14 hvcurveto
          endchar
        </CharString>
        <CharString name="egrave">
          -64 callgsubr
          46 684 367 callgsubr
          -6 -9 -11 9 hvcurveto
          82 -96 rlineto
          -8 6 550 callsubr
          65 hlineto
          14 370 callgsubr
        </CharString>
        <CharString name="eight">
          60 324 hmoveto
          104 60 52 104 hvcurveto
          45 vlineto
          63 -23 42 -42 17 vhcurveto
          38 12 27 46 64 vvcurveto
          43 vlineto
          104 -60 51 -104 vhcurveto
          -106 hlineto
          -105 -60 -51 -104 hvcurveto
          -43 vlineto
          -64 24 -41 42 -17 vhcurveto
          -43 -19 -23 -39 -63 vvcurveto
          -46 vlineto
          -104 60 -52 105 vhcurveto
          19 373 rmoveto
          -43 -15 20 42 hvcurveto
          42 vlineto
          41 15 16 43 vhcurveto
          68 hlineto
          43 15 -16 -41 hvcurveto
          -42 vlineto
          -42 -15 -20 -43 vhcurveto
          -68 -264 rmoveto
          -43 -15 16 41 hvcurveto
          46 vlineto
          42 15 20 43 vhcurveto
          68 hlineto
          43 15 -20 -42 hvcurveto
          -46 vlineto
          -41 -15 -16 -43 vhcurveto
          endchar
        </CharString>
        <CharString name="ellipsis">
          125 569 144 199 callgsubr
          -198 123 199 callgsubr
          -205 123 199 callgsubr
          endchar
        </CharString>
        <CharString name="emacron">
          -64 callgsubr
          143 595 rmoveto
          16 5 8 14 hvcurveto
          44 419 callsubr
          -197 378 callgsubr
          -44 vlineto
          -14 6 -8 15 vhcurveto
          endchar
        </CharString>
        <CharString name="emdash">
          151 40 306 rmoveto
          -14 5 -50 callsubr
          512 hlineto
          518 callsubr
          -512 hlineto
          -16 -5 -7 -15 hvcurveto
          endchar
        </CharString>
        <CharString name="endash">
          -87 335 284 rmoveto
          518 callsubr
          -274 hlineto
          -16 -5 -7 -15 hvcurveto
          -42 483 callsubr
        </CharString>
        <CharString name="eng">
          41 307 -172 rmoveto
          104 540 callsubr
          355 252 callgsubr
          -24 437 callgsubr
          -468 148 callsubr
          303 vlineto
          43 14 33 55 vhcurveto
          36 hlineto
          43 16 -17 -42 hvcurveto
          -326 vlineto
          -60 -17 -17 -61 vhcurveto
          -27 165 callgsubr
          endchar
        </CharString>
        <CharString name="eogonek">
          12 171 343 rmoveto
          42 15 16 43 vhcurveto
          42 hlineto
          43 15 -16 -42 hvcurveto
          -48 vlineto
          -8 -3 -3 -8 vhcurveto
          -136 hlineto
          -7 248 callsubr
          262 -96 rmoveto
          32 callgsubr
          118 349 callgsubr
          51 284 callsubr
          66 vlineto
          15 461 callgsubr
          -202 528 callsubr
          41 hvcurveto
          22 82 callsubr
          endchar
        </CharString>
        <CharString name="equal">
          85 94 274 rmoveto
          374 callgsubr
          379 349 callsubr
          -379 197 rmoveto
          374 callgsubr
          379 349 callsubr
          endchar
        </CharString>
        <CharString name="eth">
          25 327 169 rmoveto
          411 callsubr
          -39 523 callgsubr
          72 vlineto
          42 24 17 43 vhcurveto
          28 hlineto
          55 5 -33 -43 hvcurveto
          -19 355 rmoveto
          79 66 10 8 -1 13 -7 10 rlinecurve
          -31 38 -6 8 -12 0 -10 -8 rlinecurve
          -82 -69 -54 60 -12 12 -13 1 -12 -9 rlinecurve
          -42 -31 -14 -11 -2 -14 12 -13 rlinecurve
          56 -63 -77 -65 -7 -6 -1 -13 5 -7 rlinecurve
          30 -36 9 -10 11 -2 9 7 rlinecurve
          80 67 85 -95 4 -4 22 -26 8 -31 rlinecurve
          361 callgsubr
          76 -12 44 -39 45 vhcurveto
          endchar
        </CharString>
        <CharString name="exclam">
          -244 184 144 rmoveto
          13 -8 6 -12 vhcurveto
          -88 252 callsubr
          -121 vlineto
          -13 6 -9 14 vhcurveto
          88 hlineto
          13 7 7 14 hvcurveto
          -117 228 rmoveto
          -16 3 6 -5 14 hhcurveto
          57 hlineto
          14 6 5 16 3 hvcurveto
          4 17 132 82 vvcurveto
          155 300 callgsubr
          -95 hlineto
          -18 callgsubr
          -155 vlineto
          -82 17 -132 -4 vvcurveto
          endchar
        </CharString>
        <CharString name="exclamdown">
          -244 90 415 rmoveto
          -14 -6 -5 -16 -3 hvcurveto
          -4 -17 -132 -82 vvcurveto
          -155 -21 callsubr
          95 170 callgsubr
          155 vlineto
          82 -17 132 4 vvcurveto
          16 -3 -6 5 -14 hhcurveto
          17 65 rmoveto
          12 8 6 13 hvcurveto
          123 vlineto
          14 -7 7 -13 vhcurveto
          -88 hlineto
          -14 -6 -9 -13 hvcurveto
          -121 vlineto
          -14 6 -6 14 vhcurveto
          endchar
        </CharString>
        <CharString name="f">
          -128 240 510 rmoveto
          -8 -3 3 8 hvcurveto
          13 vlineto
          42 12 17 43 vhcurveto
          37 hlineto
          404 callsubr
          69 vlineto
          15 -4 5 -16 vhcurveto
          -57 hlineto
          -105 -57 -58 -105 hvcurveto
          -19 vlineto
          518 callgsubr
          -46 hlineto
          -17 -4 -5 -15 hvcurveto
          -69 467 callsubr
          46 405 callgsubr
          -8 hvcurveto
          -368 -21 callsubr
          84 526 callgsubr
          368 vlineto
          8 3 3 8 vhcurveto
          80 524 callgsubr
          69 vlineto
          15 -5 5 -16 vhcurveto
          endchar
        </CharString>
        <CharString name="five">
          24 273 327 rmoveto
          50 16 -16 -57 hvcurveto
          -90 vlineto
          -41 -19 -17 -43 vhcurveto
          -47 hlineto
          -42 -16 17 41 hvcurveto
          19 vlineto
          16 -7 6 -14 vhcurveto
          -85 hlineto
          -14 -7 -6 -16 hvcurveto
          -20 7 callgsubr
          88 525 callsubr
          110 vlineto
          104 -53 51 -102 vhcurveto
          -42 hlineto
          -43 -30 -18 -32 -11 hvcurveto
          147 242 vlineto
          16 478 callgsubr
          76 419 callsubr
          -348 378 callgsubr
          -317 vlineto
          -15 28 callsubr
          83 hlineto
          33 -13 42 48 hhcurveto
          endchar
        </CharString>
        <CharString name="florin">
          44 98 -133 rmoveto
          106 48 49 97 21 hvcurveto
          59 273 rlineto
          9 2 4 3 8 hhcurveto
          102 311 callsubr
          68 vlineto
          15 -9 6 -16 vhcurveto
          -73 hlineto
          -8 -3 3 8 2 hvcurveto
          25 115 rlineto
          42 9 16 17 42 hhcurveto
          41 hlineto
          15 6 8 14 hvcurveto
          68 vlineto
          15 -8 5 -16 vhcurveto
          -43 hlineto
          -105 -57 -42 -121 -26 hvcurveto
          -26 -121 rlineto
          -8 -2 -4 -3 -8 hhcurveto
          -83 hlineto
          -14 -9 -6 -15 hvcurveto
          -68 vlineto
          -14 8 -7 16 vhcurveto
          58 405 callgsubr
          -9 -2 hvcurveto
          -54 -250 rlineto
          -42 -9 -16 -17 -42 hhcurveto
          -50 hlineto
          -15 -7 -7 -14 hvcurveto
          -69 vlineto
          -15 8 -5 16 vhcurveto
          endchar
        </CharString>
        <CharString name="four">
          59 417 hmoveto
          14 6 4 17 hvcurveto
          96 72 vlineto
          15 5 9 14 hvcurveto
          67 vlineto
          14 -5 6 -15 vhcurveto
          -72 379 hlineto
          23 -16 14 -22 vhcurveto
          -113 hlineto
          -23 -8 -7 -24 -13 hvcurveto
          -199 -370 rlineto
          -7 -13 -3 -15 -21 vvcurveto
          -39 vlineto
          -23 15 -14 22 vhcurveto
          248 -96 hlineto
          -11 callgsubr
          -21 536 rmoveto
          -309 -162 vlineto
          endchar
        </CharString>
        <CharString name="fraction">
          -378 317 622 rmoveto
          13 10 -7 8 -14 hhcurveto
          -42 hlineto
          -14 -9 -6 -15 -11 hvcurveto
          -122 -165 -199 -271 -122 -165 rrcurveto
          -13 -10 7 -8 15 hhcurveto
          39 hlineto
          15 9 4 17 12 hvcurveto
          endchar
        </CharString>
        <CharString name="g">
          37 337 209 12 callsubr
          endchar
        </CharString>
        <CharString name="gbreve">
          37 164 679 rmoveto
          -69 38 -36 60 vhcurveto
          34 hlineto
          60 503 callsubr
          -5 -4 -9 hvcurveto
          -9 vlineto
          -31 -10 421 callsubr
          -11 492 callsubr
          -4 4 -10 vhcurveto
          -49 hlineto
          -10 -4 -4 -9 hvcurveto
          71 -667 rmoveto
          37 45 16 39 16 hvcurveto
          4 -76 hlineto
          -41 -16 -17 -43 vhcurveto
          -171 299 callsubr
          -69 vlineto
          -15 5 -5 16 vhcurveto
          192 hlineto
          104 61 58 104 hvcurveto
          493 177 callsubr
          -231 131 callsubr
          -161 274 callgsubr
          135 186 rmoveto
          -43 -14 -32 492 callgsubr
          16 42 hvcurveto
          149 vlineto
          217 callgsubr
          94 405 callgsubr
          -8 hvcurveto
          endchar
        </CharString>
        <CharString name="gcircumflex">
          37 337 209 12 callsubr
          126 669 149 callgsubr
        </CharString>
        <CharString name="gdotaccent">
          37 337 209 12 callsubr
          8 568 rmoveto
          -13 7 -7 13 vhcurveto
          88 hlineto
          13 6 527 callsubr
          -7 5 -12 vhcurveto
          -88 526 callsubr
          endchar
        </CharString>
        <CharString name="germandbls">
          61 281 372 rmoveto
          449 callsubr
          -66 vlineto
          -15 4 -5 16 vhcurveto
          24 hlineto
          43 21 -17 -42 hvcurveto
          -42 vlineto
          -41 -18 -17 -43 vhcurveto
          -40 299 callsubr
          -65 vlineto
          -15 5 -5 16 vhcurveto
          60 hlineto
          105 60 50 104 hvcurveto
          49 vlineto
          58 -24 50 -57 9 vhcurveto
          46 15 25 33 57 vvcurveto
          53 vlineto
          105 -60 60 -105 vhcurveto
          -97 131 callsubr
          -459 148 callsubr
          458 vlineto
          41 16 16 42 vhcurveto
          57 hlineto
          43 18 -16 -41 hvcurveto
          -48 vlineto
          -42 -20 -17 -43 vhcurveto
          endchar
        </CharString>
        <CharString name="grave">
          -184 197 684 rmoveto
          14 -8 -10 5 -12 hhcurveto
          -99 hlineto
          -14 -5 310 callsubr
        </CharString>
        <CharString name="grave.uc">
          -106 240 817 rmoveto
          14 -8 -10 5 -12 hhcurveto
          -99 hlineto
          -14 -5 310 callsubr
        </CharString>
        <CharString name="greater">
          85 71 435 rmoveto
          -16 3 -9 16 -4 vhcurveto
          301 -79 -301 -79 rlineto
          -16 -3 -3 -9 -17 vvcurveto
          -65 vlineto
          -15 8 -5 16 5 vhcurveto
          374 121 rlineto
          19 6 8 13 21 vvcurveto
          54 vlineto
          22 -8 12 -19 6 vhcurveto
          -374 121 rlineto
          -16 6 -8 -5 -15 vvcurveto
          endchar
        </CharString>
        <CharString name="greaterequal">
          83 70 257 rmoveto
          -15 7 -3 17 4 vhcurveto
          374 81 rlineto
          20 5 7 11 21 vvcurveto
          52 vlineto
          22 -7 11 -20 5 vhcurveto
          -374 81 rlineto
          -17 4 -7 -3 -15 vvcurveto
          -57 vlineto
          -17 3 -9 16 -3 vhcurveto
          266 -45 -266 -44 rlineto
          -16 -4 -3 -8 -17 vvcurveto
          23 -108 386 callgsubr
          endchar
        </CharString>
        <CharString name="guillemotleft">
          -28 215 334 rmoveto
          17 10 3 6 13 vvcurveto
          55 222 callsubr
          55 vlineto
          14 -3 5 -17 11 vhcurveto
          -102 77 rlineto
          276 77 rmoveto
          17 10 3 6 13 vvcurveto
          55 222 callsubr
          55 vlineto
          14 -3 5 -17 11 vhcurveto
          -102 77 rlineto
          endchar
        </CharString>
        <CharString name="guillemotright">
          -28 167 257 rmoveto
          -103 -77 rlineto
          -16 -11 -3 -5 -14 vvcurveto
          -55 222 callgsubr
          -55 vlineto
          -13 3 -6 16 -10 vhcurveto
          277 -77 rmoveto
          -103 -77 rlineto
          -16 -11 -3 -5 -14 vvcurveto
          -55 222 callgsubr
          -55 vlineto
          -13 3 -6 16 -10 vhcurveto
          endchar
        </CharString>
        <CharString name="guilsinglleft">
          -202 215 325 rmoveto
          17 11 3 5 14 vvcurveto
          63 222 callsubr
          63 vlineto
          14 -3 5 -17 11 vhcurveto
          -91 69 rlineto
          endchar
        </CharString>
        <CharString name="guilsinglright">
          -202 156 257 rmoveto
          -92 -69 rlineto
          -16 -11 -3 -5 -14 vvcurveto
          -63 222 callgsubr
          -63 vlineto
          -14 3 -5 16 -11 vhcurveto
          endchar
        </CharString>
        <CharString name="h">
          193 callsubr
          endchar
        </CharString>
        <CharString name="hbar">
          90 197 hmoveto
          475 callsubr
          258 vlineto
          43 13 33 55 vhcurveto
          45 hlineto
          43 15 -17 -42 hvcurveto
          -275 vlineto
          -16 8 -5 14 vhcurveto
          84 526 callgsubr
          281 252 callgsubr
          -33 hlineto
          -37 -45 -15 -40 -15 hvcurveto
          -4 112 hlineto
          9 3 3 8 vhcurveto
          130 429 callgsubr
          -130 hlineto
          -8 -3 3 9 hvcurveto
          43 vlineto
          16 -8 415 callgsubr
          -43 vlineto
          -9 -3 -3 -8 vhcurveto
          -54 351 callsubr
          54 hlineto
          8 3 -3 -9 hvcurveto
          -501 vlineto
          -16 8 -5 14 vhcurveto
          endchar
        </CharString>
        <CharString name="hcircumflex">
          193 callsubr
          300 763 rmoveto
          8 -5 -6 3 -11 hhcurveto
          -65 hlineto
          -10 -7 -3 -8 -5 hvcurveto
          -62 -105 rlineto
          -7 -4 2 -6 10 hhcurveto
          59 hlineto
          8 5 4 8 4 hvcurveto
          33 66 32 -66 rlineto
          -8 4 5 -4 521 callsubr
        </CharString>
        <CharString name="hungarumlaut">
          -66 284 703 rmoveto
          169 callsubr
          -216 hmoveto
          169 callsubr
          endchar
        </CharString>
        <CharString name="hungarumlaut.uc">
          -88 273 836 rmoveto
          169 callsubr
          -217 hmoveto
          169 callsubr
          endchar
        </CharString>
        <CharString name="hyphen">
          -170 251 268 rmoveto
          16 478 callgsubr
          59 vlineto
          15 461 callgsubr
          -190 hlineto
          -16 -5 -7 -15 hvcurveto
          -59 467 callsubr
          endchar
        </CharString>
        <CharString name="i">
          -235 60 21 rmoveto
          35 callsubr
          107 vmoveto
          218 callgsubr
          endchar
        </CharString>
        <CharString name="iacute">
          -235 60 21 rmoveto
          35 callsubr
          97 214 339 callgsubr
        </CharString>
        <CharString name="ibreve">
          -235 8 679 rmoveto
          -69 38 -36 60 95 callgsubr
          52 -669 rmoveto
          35 callsubr
          endchar
        </CharString>
        <CharString name="icircumflex">
          -236 60 21 rmoveto
          35 callsubr
          118 203 1 callsubr
          9 2 412 callsubr
          endchar
        </CharString>
        <CharString name="idieresis">
          -236 60 21 rmoveto
          35 callsubr
          99 106 254 callsubr
        </CharString>
        <CharString name="igrave">
          -235 60 21 rmoveto
          35 callsubr
          61 195 346 callgsubr
        </CharString>
        <CharString name="ij">
          8 263 -166 rmoveto
          104 62 59 105 hvcurveto
          491 vlineto
          16 -7 415 callgsubr
          -468 vlineto
          -60 -18 -17 -60 vhcurveto
          -27 165 callgsubr
          105 762 rmoveto
          218 callgsubr
          -242 -87 rmoveto
          218 callgsubr
          -662 vmoveto
          35 callsubr
          endchar
        </CharString>
        <CharString name="imacron">
          -236 60 21 rmoveto
          35 callsubr
          162 106 373 callgsubr
        </CharString>
        <CharString name="iogonek">
          -235 80 510 rmoveto
          -14 -6 -5 -16 hvcurveto
          -468 -21 callsubr
          19 349 callgsubr
          15 hlineto
          15 5 4 17 hvcurveto
          468 300 callgsubr
          -86 193 rmoveto
          258 callgsubr
          -87 vlineto
          320 callsubr
          88 vlineto
          536 callsubr
          endchar
        </CharString>
        <CharString name="itfLogo">
          1252 147 hmoveto
          207 671 -207 512 callsubr
          250 -671 rmoveto
          207 671 -207 hlineto
          249 -196 rmoveto
          208 196 -208 hlineto
          250 -671 rmoveto
          208 671 -208 512 callsubr
          -434 vmoveto
          207 196 -207 hlineto
          endchar
        </CharString>
        <CharString name="itfStar">
          190 663 452 rmoveto
          -28 -200 -6 -2 -34 hvcurveto
          -66 246 -8 -27 -53 -188 -8 -31 rlinecurve
          -261 8 25 -15 168 -108 28 -17 rlinecurve
          -96 -247 24 20 152 128 29 20 rlinecurve
          204 -168 -11 28 -71 189 -12 30 rlinecurve
          endchar
        </CharString>
        <CharString name="itilde">
          -235 60 21 rmoveto
          35 callsubr
          -56 161 rmoveto
          -40 16 -36 55 23 19 5 30 22 vhcurveto
          23 17 458 callgsubr
          -32 hvcurveto
          -9 vlineto
          -10 2 -3 9 vhcurveto
          39 hlineto
          9 355 callgsubr
          -56 -24 -16 -6 -25 -20 vhcurveto
          -26 -21 -5 -6 -6 hhcurveto
          -12 -4 6 30 hvcurveto
          11 vlineto
          10 443 callsubr
          -10 hvcurveto
          endchar
        </CharString>
        <CharString name="j">
          -235 294 callsubr
          106 762 rmoveto
          218 callgsubr
          endchar
        </CharString>
        <CharString name="jcircumflex">
          -239 294 callsubr
          221 858 136 callgsubr
          3 hvcurveto
          33 279 callgsubr
        </CharString>
        <CharString name="k">
          -10 161 188 callgsubr
          117 277 rmoveto
          -5 -10 0 -14 5 -9 127 -223 rcurveline
          -17 10 7 -4 23 hhcurveto
          86 hlineto
          18 7 12 13 -8 hvcurveto
          -139 237 rlineto
          4 vlineto
          133 219 rlineto
          15 10 -8 10 -15 hhcurveto
          -97 hlineto
          -15 -11 -5 -15 -8 hvcurveto
          endchar
        </CharString>
        <CharString name="l">
          -235 256 callgsubr
          endchar
        </CharString>
        <CharString name="lacute">
          -239 256 callgsubr
          72 882 64 callsubr
          540 callgsubr
          63 hlineto
          12 9 5 8 8 hvcurveto
          81 243 callsubr
        </CharString>
        <CharString name="lcaron">
          -125 256 callgsubr
          273 684 rmoveto
          14 -7 5 -13 vhcurveto
          -72 526 callsubr
          -199 vlineto
          -15 8 -5 10 7 7 4 6 4 vhcurveto
          53 101 rlineto
          13 25 10 20 34 vvcurveto
          endchar
        </CharString>
        <CharString name="ldot">
          -82 383 381 callsubr
          -209 -271 380 callsubr
          endchar
        </CharString>
        <CharString name="less">
          81 494 501 rmoveto
          15 -8 5 -16 -6 vhcurveto
          -374 -121 rlineto
          -19 -6 -8 -12 -22 vvcurveto
          -54 vlineto
          -21 8 -13 19 -6 vhcurveto
          374 -121 rlineto
          16 -5 8 5 15 vvcurveto
          65 vlineto
          17 -3 9 -16 3 vhcurveto
          -301 79 301 79 rlineto
          16 4 3 9 16 vvcurveto
          endchar
        </CharString>
        <CharString name="lessequal">
          83 93 206 386 callgsubr
          23 108 rmoveto
          17 -3 8 -16 4 vhcurveto
          -266 44 266 45 rlineto
          16 3 3 9 17 vvcurveto
          57 vlineto
          15 -7 3 -17 -4 vhcurveto
          -374 -81 rlineto
          -20 -5 -7 -11 -22 vvcurveto
          -52 vlineto
          -21 7 -11 20 -5 vhcurveto
          374 -81 rlineto
          17 -4 7 3 15 vvcurveto
          endchar
        </CharString>
        <CharString name="lslash">
          -160 203 247 callgsubr
          342 vlineto
          65 36 rlineto
          13 7 6 9 15 vvcurveto
          68 vlineto
          13 -8 5 -11 -6 vhcurveto
          -65 -36 rlineto
          208 -48 callgsubr
          -281 vlineto
          -64 -36 rlineto
          -14 -6 -6 -10 -13 vvcurveto
          -69 vlineto
          -13 9 -5 11 5 vhcurveto
          64 36 rlineto
          -269 -21 callsubr
          endchar
        </CharString>
        <CharString name="m">
          316 161 247 callgsubr
          303 vlineto
          43 14 33 55 vhcurveto
          31 hlineto
          43 16 -17 -42 hvcurveto
          -320 -21 callsubr
          84 526 callgsubr
          302 vlineto
          43 13 34 56 vhcurveto
          25 hlineto
          43 15 -17 -42 hvcurveto
          -320 148 callsubr
          326 549 callsubr
          -104 vhcurveto
          -29 hlineto
          -50 -45 -22 -42 -22 hvcurveto
          42 -25 -37 22 -63 hhcurveto
          -28 hlineto
          -50 -40 -23 -31 -16 hvcurveto
          -4 33 76 callsubr
          endchar
        </CharString>
        <CharString name="macron">
          -137 271 171 callsubr
        </CharString>
        <CharString name="macron.uc">
          -88 295 732 372 callsubr
        </CharString>
        <CharString name="minus">
          83 93 373 rmoveto
          459 callgsubr
          -56 vlineto
          -16 5 -7 18 vhcurveto
          379 hlineto
          504 callgsubr
        </CharString>
        <CharString name="multiply">
          39 336 322 rmoveto
          99 99 13 13 -1 9 -12 11 rlinecurve
          -42 43 -12 12 -9 1 -13 -13 rlinecurve
          -99 -99 -100 99 -12 13 -9 -1 -12 -12 rlinecurve
          -42 -43 -12 -11 -1 -9 12 -13 rlinecurve
          100 -99 -101 -101 -12 -12 1 -9 12 -12 rlinecurve
          43 -42 11 -12 9 -1 12 12 rlinecurve
          101 101 100 -101 13 -12 9 1 11 12 rlinecurve
          43 42 12 12 1 9 -13 12 rlinecurve
          endchar
        </CharString>
        <CharString name="n">
          269 callgsubr
          33 76 callsubr
          endchar
        </CharString>
        <CharString name="nacute">
          269 callgsubr
          33 76 callsubr
          226 227 callgsubr
        </CharString>
        <CharString name="ncaron">
          269 callgsubr
          33 76 callsubr
          156 574 138 callgsubr
        </CharString>
        <CharString name="nine">
          43 306 410 callgsubr
          -98 131 callsubr
          -89 vlineto
          -104 201 callgsubr
          136 -60 hlineto
          411 callsubr
          -191 hlineto
          -15 -7 -7 -13 hvcurveto
          -69 vlineto
          -14 7 -7 15 vhcurveto
          134 339 rmoveto
          -43 -15 17 41 hvcurveto
          77 vlineto
          217 callgsubr
          57 hlineto
          43 16 -17 -42 hvcurveto
          -135 vlineto
          endchar
        </CharString>
        <CharString name="notequal">
          83 227 82 rmoveto
          15 7 5 16 5 hvcurveto
          24 69 rlineto
          194 349 callsubr
          -161 hlineto
          32 95 rlineto
          129 349 callsubr
          -95 hlineto
          21 66 rlineto
          15 7 -8 6 -14 hhcurveto
          -45 hlineto
          -15 -7 -8 -13 -5 hvcurveto
          -22 -66 rlineto
          -196 hlineto
          374 callgsubr
          162 hlineto
          -32 -95 rlineto
          -130 hlineto
          374 callgsubr
          97 hlineto
          -23 -69 rlineto
          -16 -6 7 -5 14 hhcurveto
          endchar
        </CharString>
        <CharString name="ntilde">
          269 callgsubr
          33 76 callsubr
          58 88 callgsubr
        </CharString>
        <CharString name="numbersign">
          187 376 242 rmoveto
          -113 hlineto
          38 159 rlineto
          113 hlineto
          127 102 rmoveto
          546 callgsubr
          -58 hlineto
          -15 -7 -6 -15 -4 hvcurveto
          -29 -119 rlineto
          -113 hlineto
          546 callgsubr
          -62 hlineto
          -14 -5 -7 -14 -3 hvcurveto
          -29 -119 rlineto
          -119 hlineto
          -16 -5 -6 -15 hvcurveto
          -59 vlineto
          -15 439 callgsubr
          94 hlineto
          -38 -159 rlineto
          -105 hlineto
          -16 -5 -7 -15 hvcurveto
          -59 467 callsubr
          80 hlineto
          -29 -118 rlineto
          -16 -4 7 -6 14 hhcurveto
          59 hlineto
          15 7 6 15 4 hvcurveto
          29 119 rlineto
          113 hlineto
          -29 -118 rlineto
          -16 -4 7 -6 14 hhcurveto
          63 hlineto
          14 5 7 14 3 hvcurveto
          29 119 rlineto
          112 hlineto
          15 5 6 15 hvcurveto
          59 vlineto
          15 240 callsubr
          -87 hlineto
          38 159 rlineto
          98 hlineto
          15 5 7 15 hvcurveto
          59 38 callgsubr
          endchar
        </CharString>
        <CharString name="o">
          -32 callsubr
          endchar
        </CharString>
        <CharString name="oacute">
          -32 callsubr
          75 703 rmoveto
          -12 -10 507 callgsubr
          64 hlineto
          11 9 5 8 8 hvcurveto
          81 346 callsubr
          -5 9 -14 hhcurveto
          endchar
        </CharString>
        <CharString name="obreve">
          27 139 679 rmoveto
          -69 39 -36 59 95 callgsubr
          160 -690 rmoveto
          342 callsubr
          184 252 callgsubr
          -89 -24 callsubr
          19 109 rmoveto
          458 callsubr
          176 377 callsubr
          51 hlineto
          43 16 -16 -42 hvcurveto
          -176 378 callsubr
          endchar
        </CharString>
        <CharString name="ocircumflex">
          -32 callsubr
          99 692 1 callsubr
          10 1 361 callsubr
        </CharString>
        <CharString name="odieresis">
          -32 callsubr
          80 595 34 callgsubr
        </CharString>
        <CharString name="oe">
          305 230 110 rmoveto
          325 callsubr
          172 vlineto
          217 callgsubr
          48 hlineto
          43 15 -17 -42 hvcurveto
          -172 421 callgsubr
          197 174 rmoveto
          -7 248 callsubr
          46 vlineto
          217 callgsubr
          39 hlineto
          42 16 -17 -42 hvcurveto
          -46 vlineto
          518 callgsubr
          -216 -219 rmoveto
          -44 28 31 -21 76 hhcurveto
          197 511 callgsubr
          -201 523 callgsubr
          19 vlineto
          8 3 3 8 vhcurveto
          249 hlineto
          15 7 5 16 hvcurveto
          127 252 callgsubr
          -47 hlineto
          -57 -45 -18 -42 -23 hvcurveto
          42 -30 -39 18 -66 hhcurveto
          -64 -24 callsubr
          72 hlineto
          59 36 21 44 14 hvcurveto
          endchar
        </CharString>
</ttFont>
